<?xml version="1.0" standalone="no"?>
<!DOCTYPE svg PUBLIC "-//W3C//DTD SVG 20010904//EN"
 "http://www.w3.org/TR/2001/REC-SVG-20010904/DTD/svg10.dtd">
<svg version="1.0" xmlns="http://www.w3.org/2000/svg"
 width="742.000000pt" height="475.000000pt" viewBox="0 0 742.000000 475.000000"
 preserveAspectRatio="xMidYMid meet">

<g transform="translate(0.000000,475.000000) scale(0.100000,-0.100000)"
fill="#000000" stroke="none">
<path d="M3435 3934 c-208 -22 -466 -70 -615 -114 -64 -19 -74 -27 -191 -143
-141 -139 -218 -241 -293 -390 -172 -338 -213 -736 -110 -1076 14 -45 27 -81
29 -79 2 1 -7 40 -20 84 -38 132 -48 230 -42 408 8 234 47 394 147 603 82 173
223 363 354 477 52 46 74 57 151 80 304 88 686 134 959 115 551 -38 1056 -233
1611 -622 55 -39 195 -143 310 -231 266 -204 428 -312 580 -388 123 -62 315
-131 395 -142 27 -4 5 6 -55 23 -199 59 -384 145 -535 249 -52 36 -222 161
-377 278 -156 117 -354 260 -440 317 -464 308 -869 470 -1339 532 -116 16
-439 27 -519 19z"/>
<path d="M3651 3649 c-1 -14 22 -228 49 -474 28 -246 50 -452 50 -456 0 -5 5
-9 10 -9 6 0 10 15 10 33 -1 46 -118 938 -119 906z"/>
<path d="M2284 3609 c-220 -113 -453 -267 -812 -537 -136 -101 -300 -220 -365
-263 -197 -130 -428 -240 -587 -279 -57 -14 -67 -19 -40 -19 54 -1 244 52 345
97 190 83 335 178 705 456 261 196 502 358 650 436 61 32 127 77 159 107 31
29 54 53 50 53 -3 0 -50 -23 -105 -51z"/>
<path d="M3031 3084 c2 -6 84 -119 183 -252 154 -209 196 -260 196 -237 0 4
-363 480 -378 495 -3 3 -3 0 -1 -6z"/>
<path d="M4046 2823 c-96 -125 -174 -229 -172 -231 5 -4 696 -82 721 -81 22 1
-615 87 -652 88 -33 1 -29 15 25 90 207 285 261 361 258 361 -3 0 -83 -102
-180 -227z"/>
<path d="M5039 2935 c102 -210 143 -386 143 -610 0 -348 -117 -645 -359 -904
l-78 -85 61 45 c172 125 332 422 379 708 21 124 16 381 -10 496 -32 144 -120
367 -169 430 -9 11 6 -25 33 -80z"/>
<path d="M4633 2503 c9 -2 25 -2 35 0 9 3 1 5 -18 5 -19 0 -27 -2 -17 -5z"/>
<path d="M6775 2501 c31 -9 102 -14 94 -7 -2 2 -31 6 -64 9 -39 4 -50 3 -30
-2z"/>
<path d="M4723 2493 c9 -2 23 -2 30 0 6 3 -1 5 -18 5 -16 0 -22 -2 -12 -5z"/>
<path d="M6888 2483 c7 -3 16 -2 19 1 4 3 -2 6 -13 5 -11 0 -14 -3 -6 -6z"/>
<path d="M4858 2473 c7 -3 16 -2 19 1 4 3 -2 6 -13 5 -11 0 -14 -3 -6 -6z"/>
<path d="M2462 2463 c15 -2 232 -30 482 -62 377 -48 458 -55 467 -44 9 10 8
13 -5 13 -9 0 -215 22 -458 50 -244 27 -459 49 -478 48 -29 -1 -30 -2 -8 -5z"/>
<path d="M4753 2463 c9 -2 25 -2 35 0 9 3 1 5 -18 5 -19 0 -27 -2 -17 -5z"/>
<path d="M4265 2413 c-214 -24 -391 -46 -393 -48 -3 -2 71 -101 163 -220 91
-119 164 -219 162 -222 -3 -2 -103 71 -222 162 -119 92 -217 166 -219 164 -5
-5 -96 -829 -95 -854 1 -11 25 166 55 394 29 228 55 416 58 418 2 2 100 -67
217 -154 118 -87 229 -169 248 -182 25 -18 7 12 -81 130 -214 289 -250 340
-246 345 3 2 180 27 394 54 214 28 396 52 404 54 50 12 -103 -2 -445 -41z
m-44 -510 c13 -16 12 -17 -3 -4 -17 13 -22 21 -14 21 2 0 10 -8 17 -17z"/>
<path d="M6225 2184 c-504 -482 -833 -726 -1260 -934 -319 -156 -588 -243
-911 -296 -136 -22 -509 -30 -659 -14 -724 74 -1564 501 -2330 1182 l-90 80
98 -96 c314 -309 794 -641 1242 -861 489 -239 826 -328 1290 -342 852 -25
1582 305 2465 1111 118 108 283 278 269 276 -2 -1 -53 -48 -114 -106z"/>
<path d="M3285 2064 c-132 -102 -244 -190 -250 -197 -12 -14 -33 -29 255 183
275 202 243 176 239 189 -2 6 -112 -73 -244 -175z"/>
<path d="M2271 2095 c0 -5 6 -21 14 -35 8 -14 14 -20 14 -15 0 6 -6 21 -14 35
-8 14 -14 21 -14 15z"/>
<path d="M3653 1335 c0 -22 2 -30 4 -17 2 12 2 30 0 40 -3 9 -5 -1 -4 -23z"/>
</g>
</svg>
