<?xml version="1.0" standalone="no"?>
<!DOCTYPE svg PUBLIC "-//W3C//DTD SVG 20010904//EN"
 "http://www.w3.org/TR/2001/REC-SVG-20010904/DTD/svg10.dtd">
<svg version="1.0" xmlns="http://www.w3.org/2000/svg"
 width="1216.000000pt" height="605.000000pt" viewBox="0 0 1216.000000 605.000000"
 preserveAspectRatio="xMidYMid meet">

<g transform="translate(0.000000,605.000000) scale(0.100000,-0.100000)"
fill="#000000" stroke="none">
<path d="M5680 6044 c-25 -2 -101 -8 -170 -14 -810 -69 -1688 -381 -2411 -856
-292 -192 -555 -400 -1189 -939 -650 -553 -958 -795 -1155 -904 -50 -28 -180
-88 -290 -135 -110 -46 -220 -94 -245 -106 l-45 -21 115 5 c216 9 502 97 795
246 297 151 494 283 1115 749 376 282 589 433 810 573 208 132 550 326 550
313 0 -4 -13 -24 -28 -44 -241 -308 -415 -739 -473 -1171 -17 -122 -17 -437
-1 -560 86 -651 396 -1178 925 -1574 159 -118 168 -115 35 13 -268 257 -471
592 -573 946 -57 199 -70 306 -70 610 0 312 8 384 71 645 88 359 249 696 482
1010 54 72 151 180 261 290 l176 176 140 42 c332 99 614 153 1090 208 203 24
620 24 835 0 374 -41 704 -114 1073 -237 409 -137 865 -362 1327 -656 297
-190 422 -280 1133 -821 618 -469 1072 -687 1627 -782 63 -10 147 -22 185 -25
l70 -6 -85 30 c-109 37 -433 177 -571 247 -321 161 -672 411 -1007 717 -79 72
-212 190 -296 261 -83 72 -214 185 -291 251 -709 610 -1310 977 -1990 1217
-364 128 -845 240 -1225 283 -127 15 -600 28 -700 19z"/>
<path d="M5977 5010 c-4 -19 -50 -406 -102 -859 -52 -453 -96 -825 -98 -827
-2 -3 -157 125 -344 283 -186 159 -364 308 -393 333 -67 55 -91 91 263 -388
148 -200 267 -365 265 -367 -2 -2 -367 -43 -811 -92 -444 -48 -807 -90 -807
-93 0 -3 354 -49 788 -104 433 -54 803 -101 823 -105 l36 -6 -297 -375 c-163
-206 -296 -377 -294 -379 1 -2 177 126 391 283 l388 286 7 -33 c4 -17 46 -363
93 -767 47 -404 89 -748 93 -764 5 -21 39 219 106 755 54 431 100 785 101 787
2 2 486 -352 795 -582 12 -9 13 -8 4 4 -6 8 -140 190 -298 404 -158 213 -286
390 -284 392 2 1 363 49 803 105 440 56 802 104 804 106 2 1 2 5 0 7 -2 2
-362 49 -799 106 -437 56 -796 103 -797 104 -1 1 117 167 263 370 146 202 264
369 262 370 -1 2 -167 -124 -368 -280 -201 -156 -368 -284 -372 -284 -5 0 -8
7 -8 16 0 18 -198 1589 -203 1614 -2 8 -7 -1 -10 -20z"/>
<path d="M7816 4608 c169 -173 287 -341 399 -573 253 -519 307 -966 189 -1553
-114 -565 -381 -1074 -755 -1438 -187 -181 -193 -185 -409 -238 -200 -50 -446
-94 -685 -123 -123 -14 -225 -18 -565 -18 -410 0 -536 7 -835 46 -1091 140
-2261 672 -3555 1614 -69 50 -206 147 -305 215 -99 68 -219 152 -267 187 -49
35 -88 61 -88 58 0 -2 37 -46 81 -97 559 -638 1117 -1123 1714 -1490 494 -304
1136 -585 1815 -796 733 -228 1622 -283 2365 -147 890 162 1761 584 2665 1289
327 255 694 578 961 847 157 158 336 365 325 376 -11 11 -130 -68 -326 -216
-647 -487 -1347 -929 -1948 -1230 -185 -93 -403 -194 -407 -189 -2 2 26 39 62
83 202 250 370 580 449 885 84 323 97 722 33 1060 -62 329 -191 643 -374 910
-153 224 -388 477 -533 574 -38 25 -73 46 -78 46 -5 0 28 -37 72 -82z"/>
</g>
</svg>
