<svg width="1438" height="878" viewBox="0 0 1438 878" fill="none" xmlns="http://www.w3.org/2000/svg">
<path d="M805.969 133.853C814.702 138.053 822.05 145.695 828.664 153.059C852.826 179.958 854.769 222.653 845.559 264.361C836.567 305.89 801.539 348.22 762.027 364.468C759.306 365.587 752.29 369.851 749.484 369.644C830.622 343.823 874.222 237.623 829.268 163.888C822.027 152.011 816.182 143.257 805.969 133.853Z" fill="#F3EBD9"/>
<path d="M805.969 133.853C814.984 138.764 820.757 144.556 828.664 153.059C837.632 162.704 840.974 169.194 847.523 180.634C848.277 181.892 848.579 183.052 848.942 184.417C865.035 215.299 868.689 251.333 858.1 284.513C847.596 318.28 824.548 346.425 793.126 362.645C762.255 378.598 728.43 380.082 695.078 371.433C694.764 371.248 694.452 371.062 694.139 370.878C696.927 370.58 719.561 375.454 723.525 374.348C726.654 371.789 744.642 369.819 750.599 368.529C832.294 344.938 875.337 236.507 830.383 162.772C823.142 150.895 816.182 143.257 805.969 133.853Z" fill="#E1BB7D"/>
<path d="M836.509 162.425C867.184 202.023 869.247 251.333 858.658 284.513C848.154 318.28 824.548 346.425 793.127 362.645C762.255 378.598 728.43 380.081 695.078 371.433C694.764 371.248 694.452 371.062 694.139 370.878C696.928 370.58 719.561 375.454 723.525 374.348C731.956 375.324 739.081 374.238 747.371 373.003C748.096 373.084 749.55 373.212 750.226 373.133C781.188 369.574 809.067 353.773 829.182 331.011C857.496 299.413 868.785 256.073 859.482 214.68C858.309 209.372 853.798 188.08 836.509 162.425Z" fill="#5E3C13"/>
<path d="M847.481 228.747C851.263 240.782 843.52 275.149 838.961 287.343C829.818 311.927 814.012 333.477 793.312 349.581C787.552 354.027 780.65 357.477 776.234 360.897C768.446 363.998 761.76 366.688 753.33 367.668C755.789 364.461 772.592 357.337 778.095 354.717C780.874 354.275 786.152 350.944 788.544 349.232C823.284 324.365 845.453 278.482 847.481 228.747Z" fill="#E2D5C0"/>
<path fill-rule="evenodd" clip-rule="evenodd" d="M526.406 71.4126L526.408 71.4123C526.736 71.3405 527.065 71.2687 527.393 71.197C527.064 71.2688 526.735 71.3407 526.406 71.4126ZM716.02 73.6564C715.707 73.5633 715.394 73.4707 715.082 73.3787C714.656 73.1024 714.021 72.811 713.282 72.5237C714.005 72.832 714.683 73.1704 715.309 73.5408C715.544 73.5767 715.781 73.6153 716.02 73.6564ZM708.948 71.1356C708.324 70.9641 707.755 70.8177 707.299 70.7068C704.686 70.1162 702.076 69.6101 699.471 69.1865C671.45 64.6293 644.053 69.6216 620.373 81.7131C616.882 84.6598 613.147 86.9523 609.268 89.3329C604.463 92.2821 599.438 95.3664 594.386 99.9969C596.04 100.12 598.899 98.3946 602.003 96.5212C604.119 95.2445 606.348 93.8989 608.388 93.0228L607.602 93.8275C608.787 93.4831 613.539 90.6352 617.196 88.4432C618.872 87.4388 620.318 86.5722 621.086 86.147C631.046 80.6355 651.814 71.4074 663.024 73.6945C673.707 71.1113 695.562 67.9682 708.948 71.1356ZM608.642 61.7336L608.644 61.7335Z" fill="#F3EBD9"/>
<path fill-rule="evenodd" clip-rule="evenodd" d="M663.026 73.6948C675.658 70.6403 703.91 66.803 715.311 73.541C678.276 68.8306 652.14 75.1869 621.765 98.6201C589.921 123.692 569.165 160.244 563.95 200.438C560.44 232.697 563.786 249.428 574.311 272.157C578.287 280.103 584.126 288.13 589.724 296.33C579.571 289.632 565.074 269.56 559.416 258.572C545.118 230.486 542.355 197.923 551.714 167.824C559.52 141.776 573.179 117.494 594.388 99.9972C596.043 100.12 598.901 98.3948 602.005 96.5215C604.121 95.2447 606.351 93.8992 608.391 93.023L607.604 93.8278C608.789 93.4833 613.542 90.6349 617.2 88.4429C618.875 87.4388 620.321 86.5723 621.089 86.1473C631.048 80.6358 651.816 71.4076 663.026 73.6948ZM620.505 81.649C616.741 83.2459 612.868 87.1535 609.287 89.3447C613.21 86.9448 616.987 84.6347 620.505 81.649ZM609.287 89.3447C605.58 91.6116 601.743 93.9586 597.869 97.0309C601.743 93.9587 605.579 91.6118 609.284 89.3452L609.287 89.3447Z" fill="#E1BB7D"/>
<path d="M663.026 73.6947C675.658 70.6402 703.91 66.8029 715.311 73.5409C678.275 68.8305 652.139 75.1868 621.765 98.62C589.921 123.692 569.165 160.244 563.95 200.438C561.176 227.12 563.228 251.659 576.613 276.199C580.38 283.104 580.446 282.168 583.306 286.795C574.382 276.199 568.517 260.609 567.627 258.036C556.776 226.643 559.383 192.872 570.89 162.063C586.77 119.544 621.431 88.5474 663.026 73.6947Z" fill="#5E3C13"/>
<path fill-rule="evenodd" clip-rule="evenodd" d="M566.086 269.635C563.35 265.557 561.025 261.697 559.416 258.572C545.118 230.486 542.355 197.923 551.714 167.824C559.521 141.776 573.179 117.494 594.388 99.997C599.438 95.3684 604.472 92.2891 609.284 89.345C613.207 86.9455 616.983 84.6357 620.501 81.6501C597.01 91.6151 576.527 113.071 563.815 134.517C546.86 163.123 541.324 195.825 546.811 226.409C549.532 238.094 558.078 260.145 566.086 269.635Z" fill="#E2D5C0"/>
<path fill-rule="evenodd" clip-rule="evenodd" d="M495.653 170.713C495.921 170.51 496.188 170.307 496.456 170.104C496.188 170.307 495.384 170.916 495.653 170.713Z" fill="#E1BB7D"/>
<path fill-rule="evenodd" clip-rule="evenodd" d="M495.653 170.713C495.921 170.51 496.188 170.307 496.456 170.104C496.188 170.307 495.384 170.916 495.653 170.713Z" fill="#E1BB7D"/>
<path d="M384.468 225.045C400.931 217.785 412.392 215.389 426.943 204.83C465.601 176.779 498.542 144.131 537.316 116.079C595.544 73.9532 673.702 49.528 745.348 62.0878C742.792 66.0732 721.17 63.4352 716.211 63.2099L720.525 65.4899C720.187 70.883 713.553 68.8808 714.813 79.2108C709.642 82.8315 705.235 77.8578 699.584 81.8332C614.503 87.0345 563.149 114.003 496.544 164.626C478.208 178.562 451.594 198.929 431.592 208.798C417.693 215.939 400.185 223.649 384.468 225.045Z" fill="#E1BB7D"/>
<path d="M384.468 225.045C400.931 217.785 412.392 215.389 426.943 204.83C465.601 176.779 498.542 144.131 537.316 116.079C595.544 73.9532 673.702 49.528 745.348 62.0878C742.792 66.0732 721.17 63.4352 716.211 63.2099L720.525 65.4899C720.187 70.883 713.553 68.8808 714.813 79.2108C709.642 82.8315 705.235 77.8578 699.584 81.8332C614.503 87.0345 563.149 114.003 496.544 164.626C478.208 178.562 451.594 198.929 431.592 208.798C417.693 215.939 400.185 223.649 384.468 225.045Z" fill="#E1BB7D"/>
<path fill-rule="evenodd" clip-rule="evenodd" d="M537.318 114.816C595.545 72.691 673.703 49.5278 745.35 62.0876C819.387 74.9988 864.933 103.322 920.352 152.407C923.06 154.804 926.97 158.087 931.254 161.683L931.258 161.687L931.259 161.688C935.208 165.002 938.446 168.033 941.675 171.054L941.675 171.055C945.806 174.921 949.919 178.77 955.482 183.179C980.386 202.918 995.659 213.91 1025.68 224.34C1027.52 224.982 1029.12 225.457 1030.66 225.912L1030.66 225.912C1032.38 226.423 1034.01 226.908 1035.81 227.574C1036.22 227.728 1036.64 227.883 1037.06 228.039C986.212 223.586 956.151 201.016 917.006 170.54C891.484 150.671 864.993 131.962 836.215 117.077L836.34 116.816C784.279 89.9539 724.575 77.4445 666.201 85.8393C606.43 94.435 557.599 122.127 509.855 157.494C503.83 161.04 497.836 164.599 491.855 168.15C469.608 181.357 447.541 194.458 424.739 206.366C425.473 205.874 426.208 205.363 426.943 204.83C442.963 193.205 458.001 180.245 472.88 167.423C475.866 164.85 478.845 162.282 481.824 159.732C499.826 144.325 517.836 128.911 537.318 114.816ZM404.944 216.279C404.22 216.571 403.497 216.86 402.776 217.149C402.568 217.232 402.359 217.316 402.151 217.399C399.362 218.516 396.988 219.722 394.499 220.986L394.497 220.987C393.611 221.436 392.712 221.893 391.773 222.356C396.203 220.388 400.591 218.359 404.944 216.279ZM835.841 117.858L835.893 116.911C836.001 116.967 836.108 117.022 836.215 117.077L835.841 117.858ZM835.841 117.858L835.826 118.139L835.751 118.1L835.731 118.09L835.841 117.858Z" fill="#E1BB7D"/>
<path d="M384.469 225.045C400.931 217.081 412.391 214.758 426.942 204.199C465.6 176.148 498.542 142.869 537.317 114.816C595.545 72.691 673.702 49.5278 745.349 62.0876C659.712 54.7849 608.755 80.0742 583.875 92.0025C550.692 107.911 536.213 118.654 511.337 140.456C489.655 159.422 467.623 177.982 445.251 196.127C426.951 210.724 404.835 220.985 384.469 225.045Z" fill="#E2D5C0"/>
<path fill-rule="evenodd" clip-rule="evenodd" d="M699.585 81.8331C784.451 82.5124 840.239 111.195 906.57 161.086C908.051 162.2 910.07 163.74 912.466 165.567L912.475 165.574L912.476 165.574L912.477 165.575C926.054 175.929 947.205 192.269 961.527 201.563C974.266 209.829 1004.38 223.773 1031.81 226.571C1035.45 227.397 1032.41 226.315 1035.81 227.574C1036.22 227.728 1036.64 227.883 1037.06 228.039C986.212 223.586 956.151 202.278 917.006 171.802C892.157 152.457 865.371 133.352 837.344 118.921C836.813 118.648 836.267 118.366 835.709 118.078C827.482 113.834 819.144 109.592 808.211 105.272C791.309 98.5935 774.928 94.1988 763.896 91.6266C750.414 88.6082 741.595 87.4358 727.788 86.2669C703.427 84.4175 689.234 86.2223 665.57 89.6254C646.617 92.351 629.459 96.8698 612.478 102.898C614.73 100.461 617.018 98.1441 619.37 95.9348C643.483 88.3715 669.046 83.7 699.585 81.8331ZM585.05 108.904C581.326 112.072 577.77 115.502 574.407 119.119C551.658 130.749 530.006 145.01 508.425 161.08C504.465 164.029 500.477 167.052 496.456 170.104C472.511 188.275 448.146 207.138 419.874 218.12C414.668 220.142 410.122 221.319 405.239 222.582C403.345 223.071 401.401 223.574 399.348 224.145C398.394 224.324 397.443 224.507 396.495 224.689C393.037 225.353 384.469 225.045 384.469 225.045C400.186 223.648 417.694 215.938 431.593 208.797C451.099 199.174 476.893 179.565 495.165 165.675L496.545 164.626C527.713 140.937 555.542 122.427 585.05 108.904Z" fill="#5E3C13"/>
<path fill-rule="evenodd" clip-rule="evenodd" d="M451.922 265.424C503.868 313.626 567.241 354.11 636.032 373.82C742.702 400.843 819.022 374.89 904.626 312.731C907.728 309.764 914.74 304.821 921.156 299.721C925.21 296.499 929.026 293.466 931.466 291.4C936.976 286.725 975.939 249.986 979.04 245.067L982.074 241.062C977.161 243.107 967.528 250.295 960.537 255.73C957.638 257.984 955.002 260.034 952.994 261.468C936.307 273.584 919.173 285.636 901.636 296.486C832.903 339.242 760.465 368.695 677.755 360.142C664.15 358.603 650.677 355.582 637.374 352.355L636.665 352.183C630.319 350.644 617.795 347.607 614.647 346.512C585.049 336.385 556.753 325.562 529.661 309.849C507.507 297 462.814 266.071 462.814 266.071C449.724 255.8 440.015 249.773 426.587 239.947C435.003 250.031 443.09 257.227 451.922 265.424Z" fill="#E1BB7D"/>
<path fill-rule="evenodd" clip-rule="evenodd" d="M636.59 376.198C744.158 403.448 832.048 374.357 921.714 300.279C940.408 284.835 971.476 257.794 982.073 241.62L976.808 247.298C965.738 258.6 954.311 269.461 942.564 280.052C878.166 339.247 791.182 389.062 693.256 382.858C613.974 377.835 535.342 332.528 476.714 285.982C468.904 279.634 434.953 251.101 426.587 239.947C463.396 284.007 546.496 348.702 636.59 376.198Z" fill="#5E3C13"/>
<path fill-rule="evenodd" clip-rule="evenodd" d="M676.082 357.911C718.702 362.319 759.711 358.307 797.775 345.911L787.322 353.81C740.665 366.87 692.404 369.793 643.367 356.646L676.082 357.911ZM830.709 333.644C828.13 336.509 823.195 339.82 820.371 342.452C874.395 321.732 920.722 288.626 974.02 246.74L982.074 241.062C977.161 243.107 967.527 250.295 960.537 255.73C957.638 257.984 955.002 260.034 952.994 261.468C936.307 273.584 919.173 285.079 901.636 295.929C878.497 310.322 854.938 323.208 830.709 333.644Z" fill="#E2D5C0"/>
<path fill-rule="evenodd" clip-rule="evenodd" d="M815.401 344.577L824.033 336.45C826.264 335.536 828.489 334.6 830.709 333.644L815.401 344.577ZM820.371 342.452C817.985 343.367 817.816 343.704 815.401 344.577L820.371 342.452Z" fill="#5E3C13"/>
<path d="M820.371 342.452C823.195 339.82 828.13 336.509 830.709 333.644L815.401 344.577L820.371 342.452Z" fill="#E2D5C0"/>
<path d="M686.483 364.233C672.193 362.998 657.814 360.519 643.367 356.646L676.082 357.911C592.001 351.772 514.277 303.441 456.789 261.066C445.79 253.403 434.953 246.082 426.587 239.947C435.322 247.722 451.373 259.291 459.546 265.786C522.889 316.13 603.514 359.093 686.483 364.233Z" fill="#E2D5C0"/>
<path d="M592.787 228.793L708.128 228.235L686.106 218.621L592.787 228.793Z" fill="#F2DEB1"/>
<path d="M653.183 283.966L708.17 228.32L687.395 240.657L653.183 283.966Z" fill="#F2DBA8"/>
<path d="M720.666 215.803L763.285 173.864L720.659 206.864L708.245 228.235H708.255L720.666 215.803Z" fill="#E6CFA5"/>
<path d="M698.065 250.947L708.792 341.452L708.234 228.373L708.205 228.315L698.065 250.947Z" fill="#F2DBA8"/>
<path d="M708.234 214.467L708.792 113.345L697.482 211.326L708.117 228.138L708.213 228.235H708.234V214.467Z" fill="#E6D8BC"/>
<path d="M765.516 285.639L731.862 240.1L708.299 228.32L765.516 285.639Z" fill="#BF9659"/>
<path d="M824.239 228.235L732.593 216.39L708.34 228.235H824.239Z" fill="#DDB677"/>
<path d="M652.626 173.307L695.802 215.803L708.117 228.138L697.482 211.326L652.626 173.307Z" fill="#E8DBC2"/>
<path d="M695.802 215.803L652.626 173.307L686.106 218.621L708.128 228.235H708.165L708.117 228.138L695.802 215.803Z" fill="#BF9659"/>
<path d="M708.792 113.345L708.234 214.467V228.235H708.245L720.659 206.864L708.792 113.345Z" fill="#C19858"/>
<path d="M708.792 341.452L720.076 252.062L708.234 228.373L708.792 341.452Z" fill="#C19858"/>
<path d="M720.076 252.062L765.516 285.639L708.299 228.32L708.234 228.288L708.234 228.373L720.076 252.062Z" fill="#AB8145"/>
<path d="M592.787 228.793L687.395 240.657L708.17 228.32L708.195 228.295L708.178 228.26L708.128 228.235L592.787 228.793Z" fill="#AA8347"/>
<path d="M653.183 283.966L698.065 250.947L708.205 228.315L708.2 228.305L708.17 228.32L653.183 283.966Z" fill="#B48D51"/>
<path d="M731.862 240.1L824.239 228.235H708.34L708.256 228.277L708.299 228.32L731.862 240.1Z" fill="#AA8347"/>
<path d="M763.285 173.864L720.666 215.803L708.255 228.235H708.34L732.593 216.39L763.285 173.864Z" fill="#B48D51"/>
<path d="M708.792 113.345L708.234 214.467V228.235M697.482 211.326L708.792 113.345L720.659 206.864M732.593 216.39L824.239 228.235L731.862 240.1M824.239 228.235H708.34M720.076 252.062L708.792 341.452L698.065 250.947M708.792 341.452L708.234 228.373M687.395 240.657L592.787 228.793L686.106 218.621M592.787 228.793L708.128 228.235M763.285 173.864L720.666 215.803L708.255 228.235M720.659 206.864L763.285 173.864L732.593 216.39M720.076 252.062L765.516 285.639L731.862 240.1M765.516 285.639L708.299 228.32M687.395 240.657L653.183 283.966L698.065 250.947M653.183 283.966L708.17 228.32M652.626 173.307L695.802 215.803L708.117 228.138M697.482 211.326L652.626 173.307L686.106 218.621M698.065 250.947L708.205 228.315M708.234 228.256L708.255 228.235M708.234 228.256L708.245 228.235M708.234 228.256L708.205 228.315M708.234 228.256V228.235M708.234 228.256L708.213 228.235M708.234 228.256L708.234 228.288M708.234 228.256L708.195 228.295M708.234 228.256L708.256 228.277M731.862 240.1L708.299 228.32M686.106 218.621L708.128 228.235M687.395 240.657L708.17 228.32M732.593 216.39L708.34 228.235M720.659 206.864L708.245 228.235M697.482 211.326L708.117 228.138M720.076 252.062L708.234 228.373M708.128 228.235H708.165M708.128 228.235L708.178 228.26M708.17 228.32L708.195 228.295M708.17 228.32L708.2 228.305M708.245 228.235H708.255M708.245 228.235H708.234M708.255 228.235H708.34M708.234 228.373L708.205 228.315M708.234 228.373L708.234 228.288M708.205 228.315L708.2 228.305M708.117 228.138L708.213 228.235M708.117 228.138L708.165 228.235M708.213 228.235H708.234M708.213 228.235H708.165M708.299 228.32L708.234 228.288M708.299 228.32L708.256 228.277M708.234 228.288L708.178 228.26M708.234 228.288L708.2 228.305M708.234 228.288L708.256 228.277M708.34 228.235L708.256 228.277M708.165 228.235L708.178 228.26M708.195 228.295L708.178 228.26M708.195 228.295L708.2 228.305" stroke="#5E3C13" stroke-width="2.78859" stroke-miterlimit="9.43363"/>
<path d="M584.421 228.235H708.128L685.548 216.948L584.421 228.235Z" fill="#E6CFA5"/>
<path d="M647.606 288.985L708.17 228.32L685.722 239.542L647.606 288.985Z" fill="#E6CFA5"/>
<path d="M720.666 215.803L768.862 167.73L719.544 205.749L708.245 228.235H708.255L720.666 215.803Z" fill="#E6CFA5"/>
<path d="M696.95 250.947L708.234 352.048V228.373L708.205 228.315L696.95 250.947Z" fill="#E6CFA5"/>
<path d="M708.234 214.467V104.422L696.924 205.749L708.117 228.138L708.213 228.235H708.234V214.467Z" fill="#E6D8BC"/>
<path d="M768.862 288.985L730.746 239.542L708.299 228.32L768.862 288.985Z" fill="#BF9659"/>
<path d="M832.047 228.235L730.92 216.948L708.34 228.235H832.047Z" fill="#DDB677"/>
<path d="M647.606 167.73L695.802 215.803L708.117 228.138L696.924 205.749L647.606 167.73Z" fill="#E6CFA5"/>
<path d="M695.802 215.803L647.606 167.73L685.548 216.948L708.128 228.235H708.165L708.117 228.138L695.802 215.803Z" fill="#BF9659"/>
<path d="M708.234 104.422V214.467V228.235H708.245L719.544 205.749L708.234 104.422Z" fill="#C19858"/>
<path d="M708.234 352.048L719.519 250.947L708.234 228.373V352.048Z" fill="#C19858"/>
<path d="M719.519 250.947L768.862 288.985L708.299 228.32L708.234 228.288V228.373L719.519 250.947Z" fill="#AB8145"/>
<path d="M584.421 228.235L685.722 239.542L708.17 228.32L708.195 228.295L708.178 228.26L708.128 228.235H584.421Z" fill="#AA8347"/>
<path d="M647.606 288.985L696.95 250.947L708.205 228.315L708.2 228.305L708.17 228.32L647.606 288.985Z" fill="#B48D51"/>
<path d="M730.746 239.542L832.047 228.235H708.34L708.256 228.277L708.299 228.32L730.746 239.542Z" fill="#AA8347"/>
<path d="M768.862 167.73L720.666 215.803L708.255 228.235H708.34L730.92 216.948L768.862 167.73Z" fill="#B48D51"/>
<g filter="url(#filter0_ii_51_317)">
<path d="M1210.96 712.437C1210.74 710.216 1210.74 707.995 1210.96 705.774C1218.29 705.107 1223.73 704.33 1227.28 703.441C1231.06 702.331 1234.06 699.999 1236.28 696.445C1238.5 692.67 1241.05 686.673 1243.94 678.455L1317.9 479.231C1319.68 478.565 1321.79 478.121 1324.23 477.899C1326.89 477.454 1329 477.232 1330.56 477.232L1405.19 680.454C1408.07 688.228 1410.4 693.78 1412.18 697.112C1414.18 700.443 1416.96 702.553 1420.51 703.441C1424.06 704.33 1429.62 705.107 1437.17 705.774C1437.39 707.995 1437.39 710.216 1437.17 712.437C1431.39 712.437 1424.84 712.325 1417.51 712.103C1410.4 711.881 1403.85 711.77 1397.86 711.77C1391.64 711.77 1385.75 711.881 1380.2 712.103C1374.87 712.325 1369.09 712.437 1362.88 712.437C1362.65 710.216 1362.65 707.995 1362.88 705.774C1370.65 705.107 1375.76 704.441 1378.2 703.775C1380.87 702.886 1382.2 700.887 1382.2 697.778C1382.2 696.667 1381.98 695.335 1381.53 693.78C1381.09 692.003 1380.42 689.893 1379.53 687.45L1356.55 623.152H1277.26L1255.6 683.786C1253.38 689.782 1252.27 694.113 1252.27 696.778C1252.27 700.332 1253.93 702.553 1257.27 703.441C1260.6 704.33 1266.04 705.107 1273.59 705.774C1273.81 707.995 1273.81 710.216 1273.59 712.437C1268.04 712.437 1262.6 712.325 1257.27 712.103C1252.16 711.881 1246.83 711.77 1241.28 711.77C1236.83 711.77 1231.84 711.881 1226.28 712.103C1220.95 712.325 1215.84 712.437 1210.96 712.437ZM1280.92 612.825H1352.55L1316.57 512.546L1280.92 612.825ZM1358.88 443.917C1355.77 444.806 1351.44 446.138 1345.88 447.915C1340.55 449.47 1334.67 451.358 1328.23 453.579C1322.01 455.578 1316.01 457.576 1310.24 459.575C1304.46 461.574 1299.69 463.24 1295.91 464.573C1294.36 463.24 1293.25 461.241 1292.58 458.576C1297.24 455.466 1303.02 451.691 1309.9 447.249C1316.79 442.585 1323.56 438.032 1330.23 433.59C1337.11 428.925 1342.44 425.15 1346.22 422.262C1347.99 422.707 1350.22 425.261 1352.88 429.925C1355.77 434.367 1357.77 439.031 1358.88 443.917Z" fill="#E1BB7D"/>
<path d="M1102.04 511.547L1046.41 610.159V683.452C1046.41 690.115 1046.74 695.002 1047.41 698.111C1048.3 700.998 1050.52 702.886 1054.07 703.775C1057.62 704.441 1063.51 705.107 1071.73 705.774C1071.95 707.995 1071.95 710.216 1071.73 712.437C1068.4 712.437 1064.29 712.325 1059.4 712.103C1054.52 712.103 1049.63 712.103 1044.74 712.103C1040.08 711.881 1036.19 711.77 1033.08 711.77C1029.97 711.77 1025.98 711.881 1021.09 712.103C1016.42 712.103 1011.65 712.103 1006.76 712.103C1001.88 712.325 997.768 712.437 994.437 712.437C994.215 710.216 994.215 707.995 994.437 705.774C1002.65 705.107 1008.43 704.441 1011.76 703.775C1015.31 702.886 1017.54 701.22 1018.42 698.777C1019.31 696.334 1019.76 692.225 1019.76 686.451V612.491L962.788 509.881C958.79 502.552 955.569 497.332 953.126 494.223C950.905 490.891 948.129 488.67 944.797 487.56C941.688 486.449 936.802 485.672 930.139 485.228C929.917 483.007 929.917 480.786 930.139 478.565C935.913 478.565 942.132 478.676 948.795 478.898C955.68 479.12 962.121 479.231 968.118 479.231C973.226 479.231 978.89 479.12 985.109 478.898C991.55 478.676 997.657 478.565 1003.43 478.565C1003.65 480.786 1003.65 483.007 1003.43 485.228C996.547 485.45 991.661 486.116 988.773 487.227C985.886 488.115 984.442 489.781 984.442 492.224C984.442 494.223 985.997 497.999 989.106 503.551L1041.08 597.833L1093.05 503.551C1094.6 500.886 1095.71 498.776 1096.38 497.221C1097.27 495.445 1097.71 494.001 1097.71 492.89C1097.71 490.447 1095.94 488.782 1092.38 487.893C1089.05 486.783 1083.39 485.894 1075.39 485.228C1075.17 483.007 1075.17 480.786 1075.39 478.565C1079.39 478.565 1084.72 478.676 1091.38 478.898C1098.05 479.12 1103.38 479.231 1107.37 479.231C1112.48 479.231 1117.48 479.12 1122.37 478.898C1127.48 478.676 1132.47 478.565 1137.36 478.565C1137.58 480.786 1137.58 483.007 1137.36 485.228C1130.7 485.672 1125.59 486.449 1122.03 487.56C1118.48 488.67 1115.37 491.003 1112.71 494.556C1110.04 498.11 1106.49 503.773 1102.04 511.547Z" fill="#E1BB7D"/>
<path d="M713.909 603.496L705.58 602.83V683.452C705.58 690.115 706.024 695.002 706.912 698.111C707.801 700.998 709.911 702.886 713.242 703.775C716.796 704.441 722.57 705.107 730.566 705.774C730.788 707.995 730.788 710.216 730.566 712.437C727.457 712.437 723.348 712.325 718.24 712.103C713.353 712.103 708.467 712.103 703.581 712.103C698.917 711.881 695.03 711.77 691.921 711.77C689.033 711.77 685.147 711.881 680.26 712.103C675.596 712.103 670.932 712.103 666.268 712.103C661.604 712.325 657.717 712.437 654.608 712.437C654.386 710.216 654.386 707.995 654.608 705.774C662.381 705.107 667.934 704.441 671.265 703.775C674.819 703.108 676.929 701.554 677.595 699.111C678.484 696.445 678.928 692.225 678.928 686.451V507.216C678.928 500.553 678.484 495.778 677.595 492.89C676.707 490.003 674.486 488.115 670.932 487.227C667.601 486.338 662.159 485.672 654.608 485.228C654.386 483.007 654.386 480.786 654.608 478.565C657.717 478.565 661.604 478.676 666.268 478.898C671.154 478.898 675.929 479.009 680.594 479.231C685.48 479.231 689.366 479.231 692.254 479.231C695.141 479.231 699.472 479.231 705.247 479.231C711.021 479.009 716.796 478.898 722.57 478.898C728.345 478.676 732.565 478.565 735.23 478.565C747.89 478.565 759.661 480.453 770.544 484.228C781.427 488.004 790.2 494.112 796.863 502.552C803.748 510.769 807.191 521.874 807.191 535.867C807.191 552.302 802.305 565.628 792.532 575.845C782.76 586.061 769.656 593.724 753.22 598.832V599.832C756.33 601.386 759.217 603.385 761.882 605.828C764.77 608.049 767.99 611.381 771.544 615.823C774.209 619.154 777.985 624.485 782.871 631.814C787.979 639.143 793.309 647.139 798.862 655.801C804.637 664.241 809.856 672.125 814.52 679.455C819.628 687.45 823.959 693.225 827.513 696.778C831.066 700.11 834.953 702.331 839.173 703.441C843.393 704.33 849.057 705.107 856.164 705.774C856.386 707.995 856.386 710.216 856.164 712.437C853.054 712.437 849.057 712.325 844.17 712.103C839.284 712.103 834.509 712.103 829.845 712.103C825.403 711.881 821.96 711.77 819.517 711.77C816.852 711.77 814.298 711.881 811.855 712.103C809.412 712.103 806.969 712.103 804.526 712.103C802.082 707.883 798.529 702.109 793.865 694.78C789.201 687.228 783.981 679.01 778.207 670.126C772.432 661.242 766.657 652.581 760.883 644.141C755.33 635.479 750.333 628.149 745.891 622.153C742.115 616.822 738.784 612.936 735.896 610.493C733.009 608.049 729.9 606.384 726.568 605.495C723.459 604.607 719.239 603.941 713.909 603.496ZM705.58 592.836C708.467 593.28 711.021 593.613 713.242 593.835C715.463 593.835 717.573 593.835 719.572 593.835C737.34 593.835 751.555 589.504 762.215 580.842C773.098 571.958 778.54 558.188 778.54 539.531C778.54 522.874 773.987 510.214 764.881 501.552C755.775 492.668 742.337 488.226 724.569 488.226C719.017 488.226 712.687 488.559 705.58 489.226V592.836Z" fill="#E1BB7D"/>
<path d="M299.441 712.437C299.219 710.216 299.219 707.995 299.441 705.774C306.77 705.107 312.212 704.33 315.765 703.441C319.541 702.331 322.539 699.999 324.76 696.445C326.981 692.67 329.535 686.673 332.423 678.455L406.382 479.231C408.159 478.565 410.269 478.121 412.712 477.899C415.377 477.454 417.487 477.232 419.042 477.232L493.668 680.454C496.555 688.228 498.887 693.78 500.664 697.112C502.663 700.443 505.439 702.553 508.992 703.441C512.546 704.33 518.099 705.107 525.65 705.774C525.872 707.995 525.872 710.216 525.65 712.437C519.875 712.437 513.323 712.325 505.994 712.103C498.887 711.881 492.335 711.77 486.338 711.77C480.119 711.77 474.234 711.881 468.681 712.103C463.351 712.325 457.576 712.437 451.357 712.437C451.135 710.216 451.135 707.995 451.357 705.774C459.131 705.107 464.239 704.441 466.682 703.775C469.348 702.886 470.68 700.887 470.68 697.778C470.68 696.667 470.458 695.335 470.014 693.78C469.57 692.003 468.903 689.893 468.015 687.45L445.028 623.152H365.738L344.083 683.786C341.862 689.782 340.751 694.113 340.751 696.778C340.751 700.332 342.417 702.553 345.749 703.441C349.08 704.33 354.522 705.107 362.073 705.774C362.295 707.995 362.295 710.216 362.073 712.437C356.521 712.437 351.079 712.325 345.749 712.103C340.64 711.881 335.31 711.77 329.758 711.77C325.316 711.77 320.318 711.881 314.766 712.103C309.435 712.325 304.327 712.437 299.441 712.437ZM369.402 612.825H441.03L405.049 512.546L369.402 612.825Z" fill="#E1BB7D"/>
<path d="M177.557 483.895L35.6351 701.776H127.918C137.024 701.776 143.909 701.109 148.573 699.777C153.237 698.222 157.124 695.446 160.233 691.448C162.454 688.561 164.786 684.674 167.23 679.788C169.673 674.902 171.894 669.127 173.893 662.464C175.891 662.242 177.89 662.242 179.889 662.464C178.112 672.459 176.447 681.787 174.892 690.449C173.559 698.888 172.671 706.107 172.227 712.103C169.117 712.103 159.789 712.103 144.242 712.103C128.695 711.881 106.041 711.77 76.2794 711.77C60.5103 711.77 47.9617 711.881 38.6334 712.103C29.3052 712.103 21.8649 712.103 16.3124 712.103C10.982 712.325 6.09575 712.437 1.65375 712.437C0.987447 710.66 0.654297 708.994 0.654297 707.439L142.576 489.226H52.9589C46.7401 489.226 41.2987 489.67 36.6345 490.558C32.1925 491.447 28.5279 493.446 25.6406 496.555C23.4196 498.998 21.3096 502.663 19.3107 507.549C17.3118 512.435 15.535 517.988 13.9803 524.207C11.7593 524.429 9.53831 524.429 7.3173 524.207C8.64991 516.211 9.76041 508.326 10.6488 500.553C11.7593 492.779 12.6477 485.45 13.314 478.565C26.4179 479.009 40.1882 479.342 54.6247 479.564C69.0612 479.564 84.164 479.564 99.9331 479.564C116.369 479.564 129.472 479.564 139.245 479.564C149.017 479.342 156.791 479.231 162.565 479.231C168.34 479.009 173.004 478.898 176.558 478.898C176.78 479.564 177.002 480.342 177.224 481.23C177.446 481.896 177.557 482.785 177.557 483.895Z" fill="#E1BB7D"/>
<path d="M876.894 877.24L914.44 795.618H920.387L957.933 877.24H951.52L916.073 799.35H918.638L883.307 877.24H876.894ZM890.653 854.269L892.635 849.255H941.492L943.474 854.269H890.653Z" fill="#E1BB7D"/>
<path d="M809.906 877.823C803.843 877.823 798.207 876.813 792.998 874.791C787.868 872.693 783.398 869.778 779.589 866.046C775.78 862.315 772.826 857.962 770.727 852.987C768.629 847.934 767.579 842.415 767.579 836.429C767.579 830.444 768.629 824.963 770.727 819.988C772.826 814.935 775.78 810.543 779.589 806.812C783.476 803.081 787.985 800.205 793.115 798.184C798.246 796.085 803.843 795.035 809.906 795.035C815.658 795.035 821.022 795.968 825.997 797.834C831.05 799.699 835.364 802.537 838.94 806.346L835.209 810.194C831.711 806.773 827.824 804.325 823.548 802.848C819.351 801.293 814.881 800.516 810.139 800.516C804.931 800.516 800.072 801.41 795.564 803.197C791.133 804.985 787.246 807.512 783.904 810.777C780.639 814.041 778.073 817.851 776.208 822.204C774.42 826.557 773.526 831.299 773.526 836.429C773.526 841.56 774.42 846.302 776.208 850.655C778.073 855.008 780.639 858.817 783.904 862.082C787.246 865.347 791.133 867.873 795.564 869.661C800.072 871.449 804.931 872.343 810.139 872.343C814.881 872.343 819.351 871.604 823.548 870.127C827.824 868.573 831.711 866.046 835.209 862.548L838.94 866.396C835.364 870.205 831.05 873.081 825.997 875.025C821.022 876.89 815.658 877.823 809.906 877.823Z" fill="#E1BB7D"/>
<path d="M706.022 877.24V795.618H711.969V877.24H706.022Z" fill="#E1BB7D"/>
<path d="M620.963 877.24V800.982H591.579V795.618H656.294V800.982H626.91V877.24H620.963Z" fill="#E1BB7D"/>
<path d="M508.427 877.823C502.364 877.823 496.728 876.813 491.52 874.791C486.389 872.693 481.88 869.778 477.994 866.046C474.185 862.237 471.231 857.845 469.132 852.87C467.033 847.817 465.984 842.337 465.984 836.429C465.984 830.521 467.033 825.08 469.132 820.105C471.231 815.052 474.185 810.66 477.994 806.929C481.88 803.12 486.389 800.205 491.52 798.184C496.728 796.085 502.364 795.035 508.427 795.035C514.49 795.035 520.087 796.085 525.218 798.184C530.426 800.205 534.935 803.081 538.744 806.812C542.553 810.543 545.507 814.935 547.606 819.988C549.782 824.963 550.87 830.444 550.87 836.429C550.87 842.415 549.782 847.934 547.606 852.987C545.507 857.962 542.553 862.315 538.744 866.046C534.935 869.778 530.426 872.693 525.218 874.791C520.087 876.813 514.49 877.823 508.427 877.823ZM508.427 872.343C513.635 872.343 518.455 871.449 522.886 869.661C527.317 867.873 531.165 865.347 534.429 862.082C537.694 858.817 540.221 855.008 542.009 850.655C543.874 846.302 544.807 841.56 544.807 836.429C544.807 831.221 543.874 826.479 542.009 822.204C540.221 817.85 537.694 814.041 534.429 810.777C531.165 807.512 527.317 804.985 522.886 803.197C518.455 801.41 513.635 800.516 508.427 800.516C503.219 800.516 498.399 801.41 493.968 803.197C489.537 804.985 485.651 807.512 482.308 810.777C479.043 814.041 476.478 817.85 474.612 822.204C472.824 826.479 471.93 831.221 471.93 836.429C471.93 841.56 472.824 846.302 474.612 850.655C476.478 855.008 479.043 858.817 482.308 862.082C485.651 865.347 489.537 867.873 493.968 869.661C498.399 871.449 503.219 872.343 508.427 872.343ZM501.781 788.972L517.988 775.213H526.384L508.077 788.972H501.781Z" fill="#E1BB7D"/>
</g>
<g filter="url(#filter1_ii_51_317)">
<path d="M8.14941 834.202H394.604M1024.26 834.202H1410.72" stroke="#E1BB7D" stroke-width="2.81781"/>
</g>
<defs>
<filter id="filter0_ii_51_317" x="0.654297" y="421.323" width="1436.68" height="457.439" filterUnits="userSpaceOnUse" color-interpolation-filters="sRGB">
<feFlood flood-opacity="0" result="BackgroundImageFix"/>
<feBlend mode="normal" in="SourceGraphic" in2="BackgroundImageFix" result="shape"/>
<feColorMatrix in="SourceAlpha" type="matrix" values="0 0 0 0 0 0 0 0 0 0 0 0 0 0 0 0 0 0 127 0" result="hardAlpha"/>
<feOffset dy="-0.939269"/>
<feGaussianBlur stdDeviation="0.469635"/>
<feComposite in2="hardAlpha" operator="arithmetic" k2="-1" k3="1"/>
<feColorMatrix type="matrix" values="0 0 0 0 0 0 0 0 0 0 0 0 0 0 0 0 0 0 0.35 0"/>
<feBlend mode="normal" in2="shape" result="effect1_innerShadow_51_317"/>
<feColorMatrix in="SourceAlpha" type="matrix" values="0 0 0 0 0 0 0 0 0 0 0 0 0 0 0 0 0 0 127 0" result="hardAlpha"/>
<feOffset dy="0.939269"/>
<feGaussianBlur stdDeviation="0.469635"/>
<feComposite in2="hardAlpha" operator="arithmetic" k2="-1" k3="1"/>
<feColorMatrix type="matrix" values="0 0 0 0 1 0 0 0 0 1 0 0 0 0 1 0 0 0 0.85 0"/>
<feBlend mode="normal" in2="effect1_innerShadow_51_317" result="effect2_innerShadow_51_317"/>
</filter>
<filter id="filter1_ii_51_317" x="8.14941" y="831.854" width="1402.57" height="4.69629" filterUnits="userSpaceOnUse" color-interpolation-filters="sRGB">
<feFlood flood-opacity="0" result="BackgroundImageFix"/>
<feBlend mode="normal" in="SourceGraphic" in2="BackgroundImageFix" result="shape"/>
<feColorMatrix in="SourceAlpha" type="matrix" values="0 0 0 0 0 0 0 0 0 0 0 0 0 0 0 0 0 0 127 0" result="hardAlpha"/>
<feOffset dy="-0.939269"/>
<feGaussianBlur stdDeviation="0.469635"/>
<feComposite in2="hardAlpha" operator="arithmetic" k2="-1" k3="1"/>
<feColorMatrix type="matrix" values="0 0 0 0 0 0 0 0 0 0 0 0 0 0 0 0 0 0 0.35 0"/>
<feBlend mode="normal" in2="shape" result="effect1_innerShadow_51_317"/>
<feColorMatrix in="SourceAlpha" type="matrix" values="0 0 0 0 0 0 0 0 0 0 0 0 0 0 0 0 0 0 127 0" result="hardAlpha"/>
<feOffset dy="0.939269"/>
<feGaussianBlur stdDeviation="0.469635"/>
<feComposite in2="hardAlpha" operator="arithmetic" k2="-1" k3="1"/>
<feColorMatrix type="matrix" values="0 0 0 0 1 0 0 0 0 1 0 0 0 0 1 0 0 0 0.85 0"/>
<feBlend mode="normal" in2="effect1_innerShadow_51_317" result="effect2_innerShadow_51_317"/>
</filter>
</defs>
</svg>
