<svg width="824" height="470" viewBox="0 0 824 470" fill="none" xmlns="http://www.w3.org/2000/svg">
<path fill-rule="evenodd" clip-rule="evenodd" d="M283.902 64.2567C284.055 64.14 284.209 64.0234 284.362 63.9069C284.209 64.0235 283.748 64.373 283.902 64.2567Z" fill="black"/>
<path fill-rule="evenodd" clip-rule="evenodd" d="M283.902 64.2567C284.055 64.14 284.209 64.0234 284.362 63.9069C284.209 64.0235 283.748 64.373 283.902 64.2567Z" fill="black"/>
<path d="M339.612 97.5675L405.765 97.2476L393.135 91.7334L339.612 97.5675Z" fill="black"/>
<path d="M374.252 129.212L405.789 97.2966L393.874 104.372L374.252 129.212Z" fill="black"/>
<path d="M412.956 90.1174L437.4 66.0639L412.952 84.9906L405.832 97.2476H405.838L412.956 90.1174Z" fill="black"/>
<path d="M399.994 110.274L406.146 162.182L405.826 97.3267L405.809 97.2932L399.994 110.274Z" fill="black"/>
<path d="M405.826 89.3513L406.146 31.3536L399.659 87.5496L405.759 97.1922L405.814 97.2476H405.826V89.3513Z" fill="black"/>
<path d="M438.679 130.171L419.377 104.052L405.863 97.2966L438.679 130.171Z" fill="black"/>
<path d="M472.36 97.2476L419.797 90.4539L405.887 97.2476H472.36Z" fill="black"/>
<path d="M373.932 65.744L398.696 90.1174L405.759 97.1922L399.659 87.5496L373.932 65.744Z" fill="black"/>
<path d="M398.696 90.1174L373.932 65.744L393.135 91.7334L405.765 97.2476H405.786L405.759 97.1922L398.696 90.1174Z" fill="black"/>
<path d="M406.146 31.3536L405.826 89.3513V97.2476H405.832L412.952 84.9906L406.146 31.3536Z" fill="black"/>
<path d="M406.146 162.182L412.618 110.913L405.826 97.3267L406.146 162.182Z" fill="black"/>
<path d="M412.618 110.913L438.679 130.171L405.863 97.2966L405.826 97.2781L405.826 97.3267L412.618 110.913Z" fill="black"/>
<path d="M339.612 97.5675L393.874 104.372L405.789 97.2966L405.804 97.282L405.794 97.2619L405.765 97.2476L339.612 97.5675Z" fill="black"/>
<path d="M374.252 129.212L399.994 110.274L405.809 97.2932L405.807 97.2878L405.789 97.2966L374.252 129.212Z" fill="black"/>
<path d="M419.377 104.052L472.36 97.2476H405.887L405.838 97.2719L405.863 97.2966L419.377 104.052Z" fill="black"/>
<path d="M437.4 66.0639L412.956 90.1174L405.838 97.2476H405.887L419.797 90.4539L437.4 66.0639Z" fill="black"/>
<path d="M694.159 375.454C694.032 374.18 694.032 372.906 694.159 371.632C698.363 371.25 701.484 370.804 703.522 370.294C705.687 369.658 707.407 368.32 708.681 366.282C709.955 364.116 711.419 360.677 713.075 355.964L755.494 241.701C756.513 241.319 757.723 241.064 759.125 240.936C760.653 240.682 761.863 240.554 762.755 240.554L805.556 357.11C807.212 361.569 808.55 364.753 809.569 366.664C810.715 368.575 812.307 369.785 814.345 370.294C816.384 370.804 819.568 371.25 823.899 371.632C824.027 372.906 824.027 374.18 823.899 375.454C820.587 375.454 816.829 375.39 812.626 375.262C808.55 375.135 804.792 375.071 801.352 375.071C797.786 375.071 794.41 375.135 791.225 375.262C788.168 375.39 784.856 375.454 781.289 375.454C781.162 374.18 781.162 372.906 781.289 371.632C785.748 371.25 788.678 370.868 790.079 370.486C791.607 369.976 792.372 368.83 792.372 367.046C792.372 366.409 792.244 365.645 791.99 364.753C791.735 363.734 791.353 362.524 790.843 361.123L777.659 324.245H732.183L719.763 359.021C718.489 362.46 717.852 364.944 717.852 366.473C717.852 368.511 718.808 369.785 720.718 370.294C722.629 370.804 725.75 371.25 730.081 371.632C730.209 372.906 730.209 374.18 730.081 375.454C726.897 375.454 723.776 375.39 720.718 375.262C717.789 375.135 714.731 375.071 711.547 375.071C708.999 375.071 706.133 375.135 702.948 375.262C699.891 375.39 696.961 375.454 694.159 375.454ZM734.285 318.322H775.366L754.73 260.808L734.285 318.322ZM778.997 221.447C777.213 221.956 774.729 222.72 771.545 223.74C768.487 224.631 765.112 225.714 761.418 226.988C757.851 228.134 754.411 229.281 751.099 230.427C747.788 231.574 745.049 232.529 742.883 233.293C741.992 232.529 741.355 231.383 740.972 229.854C743.648 228.071 746.959 225.905 750.908 223.357C754.857 220.682 758.743 218.071 762.564 215.523C766.513 212.848 769.57 210.683 771.736 209.027C772.755 209.282 774.029 210.746 775.557 213.421C777.213 215.969 778.36 218.644 778.997 221.447Z" fill="black"/>
<path d="M631.692 260.235L599.783 316.793V358.83C599.783 362.651 599.974 365.454 600.356 367.237C600.866 368.893 602.139 369.976 604.178 370.486C606.216 370.868 609.591 371.25 614.305 371.632C614.432 372.906 614.432 374.18 614.305 375.453C612.394 375.453 610.037 375.39 607.235 375.262C604.432 375.262 601.63 375.262 598.827 375.262C596.152 375.135 593.923 375.071 592.14 375.071C590.356 375.071 588.063 375.135 585.261 375.262C582.586 375.262 579.847 375.262 577.045 375.262C574.242 375.39 571.886 375.453 569.975 375.453C569.848 374.18 569.848 372.906 569.975 371.632C574.688 371.25 578 370.868 579.911 370.486C581.949 369.976 583.223 369.021 583.732 367.619C584.242 366.218 584.497 363.862 584.497 360.55V318.131L551.823 259.28C549.53 255.076 547.683 252.082 546.282 250.299C545.008 248.388 543.416 247.114 541.505 246.478C539.721 245.841 536.919 245.395 533.097 245.14C532.97 243.866 532.97 242.592 533.097 241.318C536.409 241.318 539.976 241.382 543.798 241.51C547.747 241.637 551.441 241.701 554.88 241.701C557.81 241.701 561.058 241.637 564.625 241.51C568.319 241.382 571.822 241.318 575.134 241.318C575.261 242.592 575.261 243.866 575.134 245.14C571.185 245.267 568.383 245.65 566.727 246.286C565.071 246.796 564.243 247.751 564.243 249.153C564.243 250.299 565.134 252.465 566.918 255.649L596.726 309.724L626.533 255.649C627.425 254.121 628.062 252.91 628.444 252.019C628.954 251 629.208 250.172 629.208 249.535C629.208 248.134 628.189 247.178 626.151 246.669C624.24 246.032 620.992 245.522 616.406 245.14C616.279 243.866 616.279 242.592 616.406 241.318C618.699 241.318 621.756 241.382 625.578 241.51C629.4 241.637 632.457 241.701 634.75 241.701C637.679 241.701 640.546 241.637 643.348 241.51C646.278 241.382 649.144 241.318 651.946 241.318C652.074 242.592 652.074 243.866 651.946 245.14C648.125 245.395 645.195 245.841 643.157 246.478C641.119 247.114 639.335 248.452 637.807 250.49C636.278 252.528 634.24 255.777 631.692 260.235Z" fill="black"/>
<path d="M409.081 312.972L404.304 312.59V358.83C404.304 362.651 404.559 365.454 405.068 367.237C405.578 368.893 406.788 369.976 408.698 370.486C410.737 370.868 414.049 371.25 418.634 371.632C418.762 372.906 418.762 374.18 418.634 375.453C416.851 375.453 414.494 375.39 411.565 375.262C408.762 375.262 405.96 375.262 403.157 375.262C400.482 375.135 398.253 375.071 396.47 375.071C394.814 375.071 392.584 375.135 389.782 375.262C387.107 375.262 384.432 375.262 381.757 375.262C379.082 375.39 376.853 375.453 375.069 375.453C374.942 374.18 374.942 372.906 375.069 371.632C379.528 371.25 382.712 370.868 384.623 370.486C386.661 370.103 387.871 369.212 388.253 367.81C388.763 366.282 389.018 363.862 389.018 360.55V257.751C389.018 253.929 388.763 251.191 388.253 249.535C387.744 247.879 386.47 246.796 384.432 246.286C382.521 245.777 379.4 245.395 375.069 245.14C374.942 243.866 374.942 242.592 375.069 241.318C376.853 241.318 379.082 241.382 381.757 241.51C384.559 241.51 387.298 241.573 389.973 241.701C392.776 241.701 395.005 241.701 396.661 241.701C398.317 241.701 400.801 241.701 404.113 241.701C407.425 241.573 410.737 241.51 414.049 241.51C417.361 241.382 419.781 241.318 421.309 241.318C428.57 241.318 435.322 242.401 441.563 244.567C447.805 246.732 452.837 250.235 456.658 255.076C460.607 259.789 462.582 266.158 462.582 274.183C462.582 283.61 459.779 291.253 454.174 297.113C448.57 302.972 441.054 307.367 431.628 310.297V310.87C433.411 311.762 435.067 312.908 436.595 314.309C438.251 315.583 440.099 317.494 442.137 320.042C443.665 321.952 445.831 325.01 448.633 329.213C451.563 333.417 454.62 338.003 457.805 342.971C461.117 347.811 464.11 352.333 466.785 356.537C469.715 361.123 472.199 364.435 474.237 366.473C476.276 368.384 478.505 369.658 480.925 370.294C483.345 370.804 486.594 371.25 490.67 371.632C490.797 372.906 490.797 374.18 490.67 375.453C488.886 375.453 486.594 375.39 483.791 375.262C480.989 375.262 478.25 375.262 475.575 375.262C473.027 375.135 471.053 375.071 469.652 375.071C468.123 375.071 466.658 375.135 465.257 375.262C463.856 375.262 462.454 375.262 461.053 375.262C459.652 372.842 457.614 369.53 454.939 365.327C452.264 360.995 449.27 356.282 445.958 351.187C442.646 346.092 439.334 341.124 436.022 336.283C432.838 331.315 429.972 327.111 427.424 323.672C425.258 320.615 423.348 318.386 421.692 316.984C420.036 315.583 418.252 314.628 416.341 314.118C414.558 313.609 412.138 313.227 409.081 312.972ZM404.304 306.857C405.96 307.112 407.425 307.303 408.698 307.431C409.972 307.431 411.182 307.431 412.329 307.431C422.52 307.431 430.672 304.947 436.787 299.979C443.028 294.883 446.149 286.986 446.149 276.285C446.149 266.732 443.538 259.471 438.315 254.503C433.092 249.407 425.386 246.86 415.195 246.86C412.01 246.86 408.38 247.051 404.304 247.433V306.857Z" fill="black"/>
<path d="M171.366 375.454C171.239 374.18 171.239 372.906 171.366 371.632C175.57 371.25 178.691 370.804 180.729 370.294C182.894 369.658 184.614 368.32 185.888 366.282C187.162 364.116 188.627 360.677 190.283 355.964L232.701 241.701C233.72 241.319 234.931 241.064 236.332 240.936C237.86 240.682 239.07 240.554 239.962 240.554L282.763 357.11C284.419 361.569 285.757 364.753 286.776 366.664C287.922 368.575 289.514 369.785 291.553 370.294C293.591 370.804 296.775 371.25 301.106 371.632C301.234 372.906 301.234 374.18 301.106 375.454C297.794 375.454 294.037 375.39 289.833 375.262C285.757 375.135 281.999 375.071 278.559 375.071C274.993 375.071 271.617 375.135 268.432 375.262C265.375 375.39 262.063 375.454 258.496 375.454C258.369 374.18 258.369 372.906 258.496 371.632C262.955 371.25 265.885 370.868 267.286 370.486C268.815 369.976 269.579 368.83 269.579 367.046C269.579 366.409 269.451 365.645 269.197 364.753C268.942 363.734 268.56 362.524 268.05 361.123L254.866 324.245H209.39L196.97 359.021C195.696 362.46 195.059 364.944 195.059 366.473C195.059 368.511 196.015 369.785 197.926 370.294C199.836 370.804 202.957 371.25 207.288 371.632C207.416 372.906 207.416 374.18 207.288 375.454C204.104 375.454 200.983 375.39 197.926 375.262C194.996 375.135 191.939 375.071 188.754 375.071C186.206 375.071 183.34 375.135 180.156 375.262C177.098 375.39 174.168 375.454 171.366 375.454ZM211.492 318.322H252.573L231.937 260.808L211.492 318.322Z" fill="black"/>
<path d="M101.461 244.376L20.0629 369.339H72.9909C78.2136 369.339 82.1625 368.957 84.8375 368.193C87.5126 367.301 89.7418 365.709 91.5252 363.416C92.799 361.76 94.1365 359.531 95.5378 356.728C96.939 353.926 98.2128 350.614 99.3593 346.792C100.506 346.665 101.652 346.665 102.799 346.792C101.78 352.524 100.824 357.875 99.9325 362.843C99.1682 367.683 98.6587 371.823 98.4039 375.262C96.6205 375.262 91.2704 375.262 82.3536 375.262C73.4367 375.135 60.4436 375.071 43.3741 375.071C34.3299 375.071 27.1327 375.135 21.7826 375.262C16.4325 375.262 12.1651 375.262 8.98055 375.262C5.92334 375.39 3.1209 375.453 0.573226 375.453C0.191075 374.434 0 373.479 0 372.587L81.3982 247.433H29.9989C26.4321 247.433 23.3112 247.688 20.6362 248.197C18.0885 248.707 15.9867 249.853 14.3307 251.637C13.0568 253.038 11.8467 255.14 10.7002 257.942C9.55378 260.744 8.53471 263.929 7.64302 267.496C6.36918 267.623 5.09535 267.623 3.82151 267.496C4.58581 262.91 5.22273 258.388 5.73227 253.929C6.36918 249.471 6.87872 245.267 7.26087 241.318C14.7765 241.573 22.6743 241.764 30.9542 241.892C39.2342 241.892 47.8963 241.892 56.9405 241.892C66.3669 241.892 73.8825 241.892 79.4874 241.892C85.0923 241.764 89.5507 241.701 92.8627 241.701C96.1747 241.573 98.8497 241.51 100.888 241.51C101.015 241.892 101.143 242.338 101.27 242.847C101.397 243.229 101.461 243.739 101.461 244.376Z" fill="black"/>
<path d="M502.56 469.669L524.094 422.855H527.505L549.039 469.669H545.36L525.03 424.995H526.501L506.238 469.669H502.56ZM510.451 456.494L511.588 453.618H539.609L540.746 456.494H510.451Z" fill="black"/>
<path d="M464.138 470.003C460.661 470.003 457.428 469.423 454.441 468.264C451.499 467.06 448.935 465.389 446.751 463.249C444.566 461.108 442.872 458.612 441.668 455.758C440.464 452.86 439.862 449.695 439.862 446.262C439.862 442.829 440.464 439.686 441.668 436.832C442.872 433.934 444.566 431.415 446.751 429.275C448.98 427.135 451.566 425.486 454.508 424.326C457.451 423.123 460.661 422.521 464.138 422.521C467.438 422.521 470.514 423.056 473.367 424.126C476.265 425.196 478.74 426.823 480.791 429.008L478.651 431.215C476.644 429.253 474.415 427.849 471.963 427.001C469.555 426.11 466.992 425.664 464.272 425.664C461.285 425.664 458.499 426.177 455.913 427.202C453.371 428.228 451.142 429.677 449.225 431.549C447.352 433.422 445.881 435.606 444.811 438.103C443.786 440.6 443.273 443.319 443.273 446.262C443.273 449.204 443.786 451.924 444.811 454.421C445.881 456.918 447.352 459.102 449.225 460.975C451.142 462.847 453.371 464.296 455.913 465.322C458.499 466.347 461.285 466.86 464.272 466.86C466.992 466.86 469.555 466.436 471.963 465.589C474.415 464.697 476.644 463.249 478.651 461.242L480.791 463.449C478.74 465.634 476.265 467.283 473.367 468.398C470.514 469.468 467.438 470.003 464.138 470.003Z" fill="black"/>
<path d="M404.558 469.669V422.855H407.968V469.669H404.558Z" fill="black"/>
<path d="M355.773 469.669V425.931H338.92V422.855H376.036V425.931H359.183V469.669H355.773Z" fill="black"/>
<path d="M291.228 470.003C287.75 470.003 284.518 469.423 281.531 468.264C278.588 467.06 276.002 465.389 273.773 463.248C271.588 461.064 269.894 458.545 268.69 455.691C267.487 452.793 266.885 449.65 266.885 446.262C266.885 442.873 267.487 439.753 268.69 436.899C269.894 434.001 271.588 431.482 273.773 429.342C276.002 427.158 278.588 425.486 281.531 424.326C284.518 423.123 287.75 422.521 291.228 422.521C294.705 422.521 297.915 423.123 300.858 424.326C303.845 425.486 306.431 427.135 308.616 429.275C310.8 431.415 312.494 433.934 313.698 436.832C314.947 439.686 315.571 442.829 315.571 446.262C315.571 449.695 314.947 452.86 313.698 455.758C312.494 458.612 310.8 461.108 308.616 463.248C306.431 465.389 303.845 467.06 300.858 468.264C297.915 469.423 294.705 470.003 291.228 470.003ZM291.228 466.86C294.215 466.86 296.979 466.347 299.52 465.322C302.062 464.296 304.269 462.847 306.141 460.975C308.014 459.102 309.463 456.918 310.488 454.421C311.558 451.924 312.093 449.204 312.093 446.262C312.093 443.275 311.558 440.555 310.488 438.103C309.463 435.606 308.014 433.422 306.141 431.549C304.269 429.677 302.062 428.228 299.52 427.202C296.979 426.177 294.215 425.664 291.228 425.664C288.241 425.664 285.476 426.177 282.935 427.202C280.394 428.228 278.165 429.677 276.247 431.549C274.375 433.422 272.904 435.606 271.834 438.103C270.808 440.555 270.295 443.275 270.295 446.262C270.295 449.204 270.808 451.924 271.834 454.421C272.904 456.918 274.375 459.102 276.247 460.975C278.165 462.847 280.394 464.296 282.935 465.322C285.476 466.347 288.241 466.86 291.228 466.86ZM287.416 419.043L296.712 411.152H301.527L291.027 419.043H287.416Z" fill="black"/>
<path d="M225.946 443.987V445.602H4.29883V443.987H225.946Z" fill="black"/>
<path d="M808.728 443.987V445.602H587.08V443.987H808.728Z" fill="black"/>
<path d="M474.897 54.1308C471.104 49.9073 466.89 45.5241 461.881 43.1155C470.314 50.8807 476.392 60.2161 480.273 70.3215C484.1 79.733 486.236 90.4858 485.515 100.671C484.417 116.198 479.902 130.955 472.682 143.323C467.347 152.46 460.537 160.294 452.538 166.172L452.401 166.212C431.931 172.158 410.056 173.967 387.385 171.622C373.127 170.581 359.187 167.425 345.772 162.866C342.636 161.801 339.529 160.659 336.453 159.449C308.183 148.332 282.556 131.516 261.612 116.077C255.831 112.05 249.971 108.131 244.29 103.965C244.29 103.965 245.717 105.643 246.644 106.707C282.589 147.96 314.902 166.902 364.735 182.11C426.43 197.739 476.838 181.055 528.265 138.568C538.987 129.71 556.807 113.881 562.884 104.605C560.067 105.777 554.541 109.9 550.532 113.017L550.531 113.018L550.522 113.025L550.52 113.026C548.862 114.315 547.355 115.488 546.206 116.308C536.635 123.257 526.808 129.85 516.75 136.073C503.479 144.328 489.967 151.719 476.07 157.704L476.069 157.705C481.502 151.668 485.958 144.766 489.23 137.244C490.321 134.737 491.28 132.161 492.1 129.525C498.173 110.495 496.99 82.2136 479.397 59.5025C479.397 59.5025 475.761 55.0596 474.897 54.1308Z" fill="black"/>
<path fill-rule="evenodd" clip-rule="evenodd" d="M550.782 73.889C549.76 73.0887 548.712 72.2619 547.633 71.4063C548.72 72.2741 549.768 73.1002 550.782 73.889ZM592.611 96.4878L592.614 96.4876C592.67 96.4842 592.727 96.5055 593.291 96.7153C593.406 96.7582 593.543 96.8088 593.704 96.8687C593.33 96.7299 592.968 96.6048 592.611 96.4878Z" fill="black"/>
<path d="M340.65 141.029C342.679 142.575 345.654 144.877 347.921 145.991C343.79 142.215 339.458 138.616 336.266 133.991L336.254 133.973L336.251 133.968C336.216 133.918 336.181 133.868 336.147 133.818C334.881 131.983 333.615 130.148 332.407 128.275C332.199 127.966 331.978 127.623 331.701 127.163C331.357 126.593 330.929 125.844 330.336 124.757C329.522 123.264 328.78 121.771 328.108 120.276C323.886 110.895 322.372 101.457 322.461 91.5984C322.45 89.9195 322.493 88.2384 322.59 86.5577C322.692 84.8053 322.853 83.0534 323.073 81.3047C325.989 58.8326 337.375 38.3451 354.865 24.007C363.325 21.2222 371.956 19.1012 381.356 17.7493C394.929 15.7975 403.069 14.7624 417.041 15.8231C424.96 16.4935 430.018 17.1659 437.75 18.8971C444.078 20.3723 453.473 22.8929 463.167 26.7231C469.437 29.2008 474.22 31.6337 478.938 34.0682L478.951 34.0747C478.961 34.0801 478.971 34.0855 478.982 34.0908C495.58 42.655 510.853 53.4271 525.565 64.8809C548.017 82.3601 565.258 94.5812 594.424 97.1351C594.181 97.0455 593.941 96.9567 593.704 96.8687C593.33 96.7299 592.968 96.6048 592.611 96.4878C591.987 96.2829 591.38 96.1026 590.753 95.9163L590.751 95.916L590.749 95.9154L590.748 95.9151C590.419 95.8175 590.085 95.7183 589.74 95.613C572.755 88.683 565.119 85.0361 550.783 73.8898L550.782 73.889C549.768 73.1002 548.72 72.2741 547.633 71.4063C544.443 68.8782 542.084 66.67 539.715 64.4536L539.714 64.4526C537.863 62.7198 536.004 60.9804 533.739 59.0794L533.737 59.0775C531.28 57.015 529.037 55.132 527.484 53.757C495.699 25.6048 469.576 9.36035 427.113 1.95527C386.021 -5.24829 341.194 8.03672 307.798 32.1974C296.626 40.2799 286.298 49.1191 275.975 57.9545L275.965 57.9628L275.928 57.9951C265.717 66.7339 255.51 75.4679 244.493 83.4617C238.986 87.4584 234.251 89.3977 228.954 91.5672C226.223 92.6853 223.344 93.8645 220.133 95.4181C224.323 95.5689 228.022 95.0459 232.046 94.0051C234.846 93.2807 237.454 92.6062 240.44 91.4464C256.117 85.3561 269.701 75.0409 282.996 64.944L283.015 64.93C283.464 64.5887 284.362 63.9069 284.362 63.9069C286.669 62.1567 288.956 60.423 291.227 58.7316C303.583 49.5315 315.978 41.3652 329 34.7013C326.765 37.5719 324.751 40.5344 322.995 43.4966C313.271 59.903 310.096 78.6593 313.243 96.2002C316.338 113.448 325.545 129.521 340.65 141.029Z" fill="black"/>
</svg>
