<svg width="1267" height="261" viewBox="0 0 1267 261" fill="none" xmlns="http://www.w3.org/2000/svg">
<path fill-rule="evenodd" clip-rule="evenodd" d="M69.4396 98.8736C69.607 98.7465 69.7743 98.6196 69.9415 98.4927C69.7742 98.6197 69.2721 99.0002 69.4396 98.8736Z" fill="black"/>
<path fill-rule="evenodd" clip-rule="evenodd" d="M69.4396 98.8736C69.607 98.7465 69.7743 98.6196 69.9415 98.4927C69.7742 98.6197 69.2721 99.0002 69.4396 98.8736Z" fill="black"/>
<path d="M130.104 135.147L202.14 134.798L188.386 128.794L130.104 135.147Z" fill="black"/>
<path d="M167.825 169.605L202.166 134.852L189.192 142.557L167.825 169.605Z" fill="black"/>
<path d="M209.971 127.034L236.588 100.841L209.967 121.451L202.213 134.798H202.219L209.971 127.034Z" fill="black"/>
<path d="M195.855 148.983L202.555 205.507L202.206 134.884L202.188 134.848L195.855 148.983Z" fill="black"/>
<path d="M202.206 126.2L202.555 63.0445L195.491 124.238L202.133 134.738L202.193 134.798H202.206V126.2Z" fill="black"/>
<path d="M237.981 170.65L216.963 142.208L202.247 134.852L237.981 170.65Z" fill="black"/>
<path d="M274.657 134.798L217.42 127.4L202.273 134.798H274.657Z" fill="black"/>
<path d="M167.476 100.493L194.442 127.034L202.133 134.738L195.491 124.238L167.476 100.493Z" fill="black"/>
<path d="M194.442 127.034L167.476 100.493L188.386 128.794L202.14 134.798H202.163L202.133 134.738L194.442 127.034Z" fill="black"/>
<path d="M202.555 63.0445L202.206 126.2V134.798H202.213L209.967 121.451L202.555 63.0445Z" fill="black"/>
<path d="M202.555 205.507L209.602 149.679L202.206 134.884L202.555 205.507Z" fill="black"/>
<path d="M209.602 149.679L237.981 170.65L202.247 134.852L202.206 134.832L202.206 134.884L209.602 149.679Z" fill="black"/>
<path d="M130.104 135.147L189.192 142.557L202.166 134.852L202.182 134.836L202.171 134.814L202.14 134.798L130.104 135.147Z" fill="black"/>
<path d="M167.825 169.605L195.855 148.983L202.188 134.848L202.185 134.842L202.166 134.852L167.825 169.605Z" fill="black"/>
<path d="M216.963 142.208L274.657 134.798H202.273L202.22 134.825L202.247 134.852L216.963 142.208Z" fill="black"/>
<path d="M236.588 100.841L209.971 127.034L202.219 134.798H202.273L217.42 127.4L236.588 100.841Z" fill="black"/>
<path d="M1136.73 166.427C1136.61 165.153 1136.61 163.879 1136.73 162.605C1140.94 162.223 1144.06 161.777 1146.1 161.268C1148.26 160.631 1149.98 159.293 1151.26 157.255C1152.53 155.09 1153.99 151.65 1155.65 146.937L1198.07 32.6739C1199.09 32.2918 1200.3 32.037 1201.7 31.9096C1203.23 31.6549 1204.44 31.5275 1205.33 31.5275L1248.13 148.084C1249.79 152.542 1251.12 155.727 1252.14 157.637C1253.29 159.548 1254.88 160.758 1256.92 161.268C1258.96 161.777 1262.14 162.223 1266.47 162.605C1266.6 163.879 1266.6 165.153 1266.47 166.427C1263.16 166.427 1259.4 166.363 1255.2 166.236C1251.12 166.108 1247.37 166.045 1243.93 166.045C1240.36 166.045 1236.98 166.108 1233.8 166.236C1230.74 166.363 1227.43 166.427 1223.86 166.427C1223.74 165.153 1223.74 163.879 1223.86 162.605C1228.32 162.223 1231.25 161.841 1232.65 161.459C1234.18 160.949 1234.95 159.803 1234.95 158.02C1234.95 157.383 1234.82 156.618 1234.56 155.727C1234.31 154.708 1233.93 153.497 1233.42 152.096L1220.23 115.219H1174.76L1162.34 149.994C1161.06 153.434 1160.43 155.918 1160.43 157.446C1160.43 159.484 1161.38 160.758 1163.29 161.268C1165.2 161.777 1168.32 162.223 1172.66 162.605C1172.78 163.879 1172.78 165.153 1172.66 166.427C1169.47 166.427 1166.35 166.363 1163.29 166.236C1160.36 166.108 1157.31 166.045 1154.12 166.045C1151.57 166.045 1148.71 166.108 1145.52 166.236C1142.47 166.363 1139.54 166.427 1136.73 166.427ZM1176.86 109.295H1217.94L1197.3 51.7815L1176.86 109.295ZM1221.57 12.4199C1219.79 12.9294 1217.3 13.6937 1214.12 14.7128C1211.06 15.6045 1207.69 16.6873 1203.99 17.9611C1200.43 19.1076 1196.99 20.254 1193.67 21.4005C1190.36 22.5469 1187.62 23.5023 1185.46 24.2666C1184.57 23.5023 1183.93 22.3558 1183.55 20.8272C1186.22 19.0439 1189.53 16.8783 1193.48 14.3307C1197.43 11.6556 1201.32 9.04425 1205.14 6.49658C1209.09 3.82152 1212.14 1.65599 1214.31 0C1215.33 0.254772 1216.6 1.71969 1218.13 4.39474C1219.79 6.94242 1220.93 9.61747 1221.57 12.4199Z" fill="black"/>
<path d="M1074.27 51.2082L1042.36 107.767V149.803C1042.36 153.625 1042.55 156.427 1042.93 158.211C1043.44 159.867 1044.71 160.949 1046.75 161.459C1048.79 161.841 1052.17 162.223 1056.88 162.605C1057.01 163.879 1057.01 165.153 1056.88 166.427C1054.97 166.427 1052.61 166.363 1049.81 166.236C1047.01 166.236 1044.2 166.236 1041.4 166.236C1038.73 166.108 1036.5 166.045 1034.71 166.045C1032.93 166.045 1030.64 166.108 1027.84 166.236C1025.16 166.236 1022.42 166.236 1019.62 166.236C1016.82 166.363 1014.46 166.427 1012.55 166.427C1012.42 165.153 1012.42 163.879 1012.55 162.605C1017.26 162.223 1020.57 161.841 1022.49 161.459C1024.52 160.949 1025.8 159.994 1026.31 158.593C1026.82 157.191 1027.07 154.835 1027.07 151.523V109.104L994.397 50.2528C992.104 46.0492 990.257 43.0557 988.856 41.2723C987.582 39.3615 985.99 38.0877 984.079 37.4508C982.296 36.8139 979.493 36.368 975.672 36.1133C975.544 34.8394 975.544 33.5656 975.672 32.2917C978.984 32.2917 982.55 32.3554 986.372 32.4828C990.321 32.6102 994.015 32.6739 997.454 32.6739C1000.38 32.6739 1003.63 32.6102 1007.2 32.4828C1010.89 32.3554 1014.4 32.2917 1017.71 32.2917C1017.84 33.5656 1017.84 34.8394 1017.71 36.1133C1013.76 36.2406 1010.96 36.6228 1009.3 37.2597C1007.64 37.7693 1006.82 38.7246 1006.82 40.1259C1006.82 41.2723 1007.71 43.4378 1009.49 46.6224L1039.3 100.697L1069.11 46.6224C1070 45.0938 1070.64 43.8837 1071.02 42.992C1071.53 41.9729 1071.78 41.1449 1071.78 40.508C1071.78 39.1068 1070.76 38.1514 1068.73 37.6419C1066.81 37.0049 1063.57 36.4954 1058.98 36.1133C1058.85 34.8394 1058.85 33.5656 1058.98 32.2917C1061.27 32.2917 1064.33 32.3554 1068.15 32.4828C1071.97 32.6102 1075.03 32.6739 1077.32 32.6739C1080.25 32.6739 1083.12 32.6102 1085.92 32.4828C1088.85 32.3554 1091.72 32.2917 1094.52 32.2917C1094.65 33.5656 1094.65 34.8394 1094.52 36.1133C1090.7 36.368 1087.77 36.8139 1085.73 37.4508C1083.69 38.0877 1081.91 39.4252 1080.38 41.4634C1078.85 43.5015 1076.81 46.7498 1074.27 51.2082Z" fill="black"/>
<path d="M851.655 103.945L846.878 103.563V149.803C846.878 153.625 847.133 156.427 847.642 158.211C848.152 159.867 849.362 160.949 851.273 161.459C853.311 161.841 856.623 162.223 861.209 162.605C861.336 163.879 861.336 165.153 861.209 166.427C859.425 166.427 857.069 166.363 854.139 166.236C851.336 166.236 848.534 166.236 845.732 166.236C843.057 166.108 840.827 166.045 839.044 166.045C837.388 166.045 835.159 166.108 832.356 166.236C829.681 166.236 827.006 166.236 824.331 166.236C821.656 166.363 819.427 166.427 817.643 166.427C817.516 165.153 817.516 163.879 817.643 162.605C822.102 162.223 825.287 161.841 827.197 161.459C829.235 161.077 830.445 160.185 830.828 158.784C831.337 157.255 831.592 154.835 831.592 151.523V48.7243C831.592 44.9027 831.337 42.164 830.828 40.508C830.318 38.852 829.044 37.7693 827.006 37.2597C825.095 36.7502 821.974 36.368 817.643 36.1133C817.516 34.8394 817.516 33.5656 817.643 32.2917C819.427 32.2917 821.656 32.3554 824.331 32.4828C827.134 32.4828 829.872 32.5465 832.547 32.6739C835.35 32.6739 837.579 32.6739 839.235 32.6739C840.891 32.6739 843.375 32.6739 846.687 32.6739C849.999 32.5465 853.311 32.4828 856.623 32.4828C859.935 32.3554 862.355 32.2917 863.884 32.2917C871.145 32.2917 877.896 33.3745 884.138 35.54C890.38 37.7056 895.411 41.2086 899.233 46.0492C903.182 50.7624 905.156 57.1316 905.156 65.1567C905.156 74.5831 902.354 82.2262 896.749 88.0858C891.144 93.9455 883.628 98.3402 874.202 101.27V101.843C875.985 102.735 877.641 103.881 879.17 105.283C880.826 106.556 882.673 108.467 884.711 111.015C886.24 112.926 888.405 115.983 891.208 120.187C894.137 124.39 897.195 128.976 900.379 133.944C903.691 138.785 906.685 143.307 909.36 147.51C912.29 152.096 914.774 155.408 916.812 157.446C918.85 159.357 921.079 160.631 923.499 161.268C925.92 161.777 929.168 162.223 933.244 162.605C933.372 163.879 933.372 165.153 933.244 166.427C931.461 166.427 929.168 166.363 926.365 166.236C923.563 166.236 920.824 166.236 918.149 166.236C915.601 166.108 913.627 166.045 912.226 166.045C910.697 166.045 909.232 166.108 907.831 166.236C906.43 166.236 905.029 166.236 903.627 166.236C902.226 163.815 900.188 160.503 897.513 156.3C894.838 151.969 891.844 147.256 888.532 142.16C885.22 137.065 881.909 132.097 878.597 127.256C875.412 122.288 872.546 118.085 869.998 114.645C867.833 111.588 865.922 109.359 864.266 107.958C862.61 106.556 860.827 105.601 858.916 105.092C857.132 104.582 854.712 104.2 851.655 103.945ZM846.878 97.8307C848.534 98.0854 849.999 98.2765 851.273 98.4039C852.547 98.4039 853.757 98.4039 854.903 98.4039C865.094 98.4039 873.246 95.9199 879.361 90.952C885.603 85.8566 888.724 77.9588 888.724 67.2586C888.724 57.7048 886.112 50.444 880.89 45.476C875.667 40.3806 867.96 37.8329 857.769 37.8329C854.585 37.8329 850.954 38.024 846.878 38.4062V97.8307Z" fill="black"/>
<path d="M613.94 166.427C613.813 165.153 613.813 163.879 613.94 162.605C618.144 162.223 621.265 161.777 623.303 161.268C625.469 160.631 627.188 159.293 628.462 157.255C629.736 155.09 631.201 151.65 632.857 146.937L675.276 32.6739C676.295 32.2918 677.505 32.037 678.906 31.9096C680.435 31.6549 681.645 31.5275 682.536 31.5275L725.337 148.084C726.993 152.542 728.331 155.727 729.35 157.637C730.496 159.548 732.089 160.758 734.127 161.268C736.165 161.777 739.35 162.223 743.681 162.605C743.808 163.879 743.808 165.153 743.681 166.427C740.369 166.427 736.611 166.363 732.407 166.236C728.331 166.108 724.573 166.045 721.134 166.045C717.567 166.045 714.191 166.108 711.007 166.236C707.95 166.363 704.638 166.427 701.071 166.427C700.943 165.153 700.943 163.879 701.071 162.605C705.529 162.223 708.459 161.841 709.86 161.459C711.389 160.949 712.153 159.803 712.153 158.02C712.153 157.383 712.026 156.618 711.771 155.727C711.516 154.708 711.134 153.497 710.625 152.096L697.44 115.219H651.964L639.544 149.994C638.271 153.434 637.634 155.918 637.634 157.446C637.634 159.484 638.589 160.758 640.5 161.268C642.411 161.777 645.532 162.223 649.863 162.605C649.99 163.879 649.99 165.153 649.863 166.427C646.678 166.427 643.557 166.363 640.5 166.236C637.57 166.108 634.513 166.045 631.328 166.045C628.781 166.045 625.914 166.108 622.73 166.236C619.673 166.363 616.743 166.427 613.94 166.427ZM654.066 109.295H695.147L674.511 51.7815L654.066 109.295Z" fill="black"/>
<path d="M544.035 35.349L462.637 160.312H515.565C520.788 160.312 524.737 159.93 527.412 159.166C530.087 158.274 532.316 156.682 534.1 154.389C535.373 152.733 536.711 150.504 538.112 147.701C539.513 144.899 540.787 141.587 541.934 137.765C543.08 137.638 544.227 137.638 545.373 137.765C544.354 143.498 543.399 148.848 542.507 153.816C541.743 158.656 541.233 162.796 540.978 166.236C539.195 166.236 533.845 166.236 524.928 166.236C516.011 166.108 503.018 166.045 485.949 166.045C476.904 166.045 469.707 166.108 464.357 166.236C459.007 166.236 454.74 166.236 451.555 166.236C448.498 166.363 445.695 166.427 443.148 166.427C442.765 165.408 442.574 164.452 442.574 163.561L523.973 38.4062H472.573C469.006 38.4062 465.886 38.6609 463.211 39.1705C460.663 39.68 458.561 40.8265 456.905 42.6098C455.631 44.0111 454.421 46.1129 453.275 48.9153C452.128 51.7178 451.109 54.9024 450.217 58.4691C448.944 58.5965 447.67 58.5965 446.396 58.4691C447.16 53.8833 447.797 49.3612 448.307 44.9027C448.944 40.4443 449.453 36.2406 449.835 32.2917C457.351 32.5465 465.249 32.7376 473.529 32.865C481.809 32.865 490.471 32.865 499.515 32.865C508.941 32.865 516.457 32.865 522.062 32.865C527.667 32.7376 532.125 32.6739 535.437 32.6739C538.749 32.5465 541.424 32.4828 543.462 32.4828C543.59 32.865 543.717 33.3108 543.844 33.8204C543.972 34.2025 544.035 34.712 544.035 35.349Z" fill="black"/>
<path d="M945.134 260.642L966.668 213.828H970.079L991.613 260.642H987.935L967.604 215.968H969.076L948.812 260.642H945.134ZM953.025 247.467L954.162 244.592H982.183L983.32 247.467H953.025Z" fill="black"/>
<path d="M906.713 260.976C903.235 260.976 900.003 260.397 897.016 259.237C894.073 258.034 891.509 256.362 889.325 254.222C887.14 252.082 885.446 249.585 884.242 246.732C883.039 243.834 882.437 240.668 882.437 237.235C882.437 233.802 883.039 230.659 884.242 227.806C885.446 224.908 887.14 222.389 889.325 220.249C891.554 218.109 894.14 216.459 897.083 215.3C900.025 214.096 903.235 213.494 906.713 213.494C910.012 213.494 913.088 214.029 915.942 215.099C918.84 216.169 921.314 217.796 923.365 219.981L921.225 222.188C919.219 220.226 916.989 218.822 914.537 217.975C912.13 217.083 909.566 216.637 906.847 216.637C903.859 216.637 901.073 217.15 898.487 218.175C895.946 219.201 893.716 220.65 891.799 222.522C889.927 224.395 888.456 226.58 887.385 229.076C886.36 231.573 885.847 234.293 885.847 237.235C885.847 240.178 886.36 242.897 887.385 245.394C888.456 247.891 889.927 250.075 891.799 251.948C893.716 253.821 895.946 255.269 898.487 256.295C901.073 257.32 903.859 257.833 906.847 257.833C909.566 257.833 912.13 257.41 914.537 256.562C916.989 255.671 919.219 254.222 921.225 252.215L923.365 254.422C921.314 256.607 918.84 258.257 915.942 259.371C913.088 260.441 910.012 260.976 906.713 260.976Z" fill="black"/>
<path d="M847.132 260.642V213.828H850.543V260.642H847.132Z" fill="black"/>
<path d="M798.347 260.642V216.905H781.494V213.828H818.611V216.905H801.758V260.642H798.347Z" fill="black"/>
<path d="M733.802 260.976C730.325 260.976 727.092 260.397 724.105 259.237C721.162 258.034 718.577 256.362 716.347 254.222C714.163 252.037 712.469 249.518 711.265 246.665C710.061 243.767 709.459 240.624 709.459 237.235C709.459 233.847 710.061 230.726 711.265 227.872C712.469 224.974 714.163 222.455 716.347 220.315C718.577 218.131 721.162 216.459 724.105 215.3C727.092 214.096 730.325 213.494 733.802 213.494C737.28 213.494 740.49 214.096 743.432 215.3C746.419 216.459 749.005 218.109 751.19 220.249C753.375 222.389 755.069 224.908 756.273 227.806C757.521 230.659 758.145 233.802 758.145 237.235C758.145 240.668 757.521 243.834 756.273 246.732C755.069 249.585 753.375 252.082 751.19 254.222C749.005 256.362 746.419 258.034 743.432 259.237C740.49 260.397 737.28 260.976 733.802 260.976ZM733.802 257.833C736.789 257.833 739.553 257.32 742.095 256.295C744.636 255.269 746.843 253.821 748.716 251.948C750.588 250.075 752.037 247.891 753.062 245.394C754.133 242.897 754.667 240.178 754.667 237.235C754.667 234.248 754.133 231.528 753.062 229.076C752.037 226.579 750.588 224.395 748.716 222.522C746.843 220.65 744.636 219.201 742.095 218.175C739.553 217.15 736.789 216.637 733.802 216.637C730.815 216.637 728.051 217.15 725.509 218.175C722.968 219.201 720.739 220.65 718.822 222.522C716.949 224.395 715.478 226.579 714.408 229.076C713.383 231.528 712.87 234.248 712.87 237.235C712.87 240.178 713.383 242.897 714.408 245.394C715.478 247.891 716.949 250.075 718.822 251.948C720.739 253.821 722.968 255.269 725.509 256.295C728.051 257.32 730.815 257.833 733.802 257.833ZM729.99 210.016L739.286 202.125H744.101L733.601 210.016H729.99Z" fill="black"/>
<path d="M668.521 234.96V236.575H446.873V234.96H668.521Z" fill="black"/>
<path d="M1251.3 234.96V236.575H1029.65V234.96H1251.3Z" fill="black"/>
<path d="M277.42 87.8472C273.289 83.2482 268.7 78.4752 263.246 75.8524C272.43 84.3081 279.048 94.4738 283.274 105.478C287.441 115.726 289.767 127.435 288.982 138.526C287.787 155.434 282.869 171.503 275.007 184.971C269.199 194.921 261.783 203.451 253.073 209.852L252.923 209.895C230.633 216.37 206.812 218.34 182.126 215.787C166.599 214.653 151.42 211.216 136.812 206.253C133.397 205.092 130.014 203.849 126.665 202.532C95.8805 190.426 67.9742 172.114 45.1674 155.302C38.8731 150.917 32.4918 146.65 26.305 142.113C26.305 142.113 27.859 143.94 28.8686 145.099C68.0107 190.021 103.197 210.647 157.461 227.208C224.643 244.227 279.533 226.058 335.534 179.793C347.209 170.148 366.613 152.911 373.232 142.81C370.164 144.087 364.147 148.576 359.781 151.97L359.779 151.972L359.771 151.978L359.768 151.98C357.963 153.384 356.321 154.66 355.07 155.554C344.648 163.121 333.947 170.3 322.995 177.076C308.543 186.066 293.83 194.113 278.698 200.631L278.696 200.632C284.613 194.058 289.465 186.542 293.028 178.352C294.216 175.622 295.26 172.817 296.153 169.946C302.766 149.224 301.477 118.427 282.32 93.6966C282.32 93.6966 278.361 88.8586 277.42 87.8472Z" fill="black"/>
<path fill-rule="evenodd" clip-rule="evenodd" d="M360.053 109.363C358.94 108.491 357.799 107.591 356.624 106.659C357.808 107.604 358.949 108.504 360.053 109.363ZM405.602 133.971L405.605 133.971C405.666 133.967 405.729 133.99 406.343 134.219C406.468 134.265 406.616 134.321 406.792 134.386C406.385 134.235 405.99 134.098 405.602 133.971Z" fill="black"/>
<path d="M131.234 182.473C133.444 184.157 136.684 186.663 139.152 187.876C134.654 183.765 129.937 179.846 126.461 174.809L126.448 174.79L126.444 174.784C126.406 174.73 126.368 174.675 126.331 174.62C124.952 172.623 123.574 170.625 122.259 168.585C122.032 168.248 121.791 167.875 121.489 167.374C121.115 166.753 120.649 165.937 120.003 164.754C119.116 163.128 118.309 161.502 117.577 159.875C112.98 149.66 111.331 139.382 111.428 128.647C111.416 126.819 111.463 124.988 111.569 123.158C111.68 121.25 111.855 119.342 112.095 117.438C115.27 92.9671 127.668 70.6578 146.714 55.0446C155.926 52.0121 165.325 49.7025 175.561 48.2305C190.34 46.105 199.204 44.9778 214.419 46.1329C223.042 46.863 228.55 47.5951 236.97 49.4803C243.86 51.0867 254.091 53.8314 264.646 58.0023C271.475 60.7003 276.682 63.3495 281.82 66.0005L281.834 66.0076C281.845 66.0135 281.857 66.0193 281.868 66.0252C299.942 75.3509 316.573 87.081 332.594 99.5533C357.042 118.587 375.816 131.895 407.576 134.676C407.311 134.578 407.05 134.482 406.792 134.386C406.385 134.235 405.99 134.098 405.602 133.971C404.923 133.748 404.261 133.552 403.578 133.349L403.577 133.348L403.575 133.348L403.573 133.347C403.216 133.241 402.851 133.133 402.476 133.018C383.981 125.472 375.665 121.501 360.055 109.363L360.053 109.363C358.949 108.504 357.808 107.604 356.624 106.659C353.15 103.906 350.581 101.502 348.002 99.088L348.001 99.087C345.985 97.2 343.961 95.306 341.495 93.236L341.492 93.2338C338.817 90.988 336.375 88.9375 334.684 87.4401C300.072 56.7845 271.626 39.0955 225.387 31.0319C180.64 23.1877 131.827 37.6541 95.4613 63.9634C83.2958 72.7647 72.0496 82.3899 60.8082 92.011L60.7977 92.02L60.7566 92.0552C49.6379 101.571 38.523 111.082 26.5269 119.786C20.53 124.139 15.3735 126.25 9.60523 128.613C6.63232 129.83 3.49684 131.114 0 132.806C4.56291 132.97 8.59109 132.401 12.9723 131.268C16.0219 130.479 18.8616 129.744 22.1128 128.481C39.1846 121.849 53.9759 110.617 68.454 99.6221L68.4741 99.6068C68.9636 99.2351 69.9415 98.4927 69.9415 98.4927C72.4529 96.5869 74.9434 94.699 77.4169 92.8572C90.8709 82.839 104.369 73.9464 118.549 66.6899C116.115 69.8158 113.922 73.0417 112.01 76.2673C101.421 94.1327 97.9633 114.557 101.39 133.658C104.76 152.439 114.786 169.941 131.234 182.473Z" fill="black"/>
</svg>
