<svg width="2057" height="465" viewBox="0 0 2057 465" fill="none" xmlns="http://www.w3.org/2000/svg">
<path d="M426.369 139.914C435.102 144.114 442.449 151.756 449.064 159.12C473.226 186.019 475.168 228.714 465.959 270.422C456.966 311.951 421.939 354.282 382.426 370.53C379.705 371.648 372.69 375.912 369.884 375.706C451.021 349.884 494.621 243.684 449.668 169.949C442.426 158.072 436.582 149.318 426.369 139.914Z" fill="#F3EBD9"/>
<path d="M426.368 139.914C435.383 144.825 441.157 150.617 449.063 159.12C458.032 168.765 461.373 175.256 467.922 186.695C468.676 187.954 468.978 189.114 469.341 190.478C485.434 221.361 489.089 257.394 478.499 290.575C467.995 324.341 444.947 352.486 413.526 368.706C382.654 384.659 348.83 386.143 315.477 377.495C315.164 377.31 314.851 377.124 314.539 376.939C317.327 376.641 339.961 381.516 343.924 380.409C347.053 377.85 365.041 375.881 370.998 374.59C452.693 351 495.736 242.569 450.782 168.834C443.541 156.957 436.581 149.318 426.368 139.914Z" fill="#E1BB7D"/>
<path d="M456.909 168.486C487.583 208.084 489.646 257.394 479.057 290.575C468.553 324.341 444.947 352.486 413.526 368.706C382.654 384.659 348.83 386.143 315.477 377.495C315.164 377.31 314.852 377.124 314.539 376.939C317.327 376.641 339.961 381.516 343.925 380.409C352.356 381.386 359.48 380.3 367.771 379.064C368.496 379.146 369.95 379.273 370.626 379.195C401.587 375.636 429.467 359.834 449.582 337.072C477.896 305.474 489.184 262.134 479.881 220.741C478.708 215.434 474.198 194.141 456.909 168.486Z" fill="#5E3C13"/>
<path d="M467.88 234.809C471.662 246.844 463.919 281.21 459.36 293.405C450.218 317.988 434.411 339.539 413.711 355.642C407.952 360.089 401.049 363.538 396.633 366.958C388.846 370.06 382.16 372.749 373.729 373.73C376.188 370.522 392.992 363.399 398.495 360.778C401.273 360.336 406.551 357.006 408.943 355.293C443.683 330.426 465.852 284.544 467.88 234.809Z" fill="#E2D5C0"/>
<path fill-rule="evenodd" clip-rule="evenodd" d="M146.806 77.4744L146.807 77.4741C147.136 77.4023 147.464 77.3305 147.792 77.2588C147.464 77.3306 147.135 77.4025 146.806 77.4744ZM336.419 79.7182C336.106 79.625 335.794 79.5325 335.481 79.4404C335.055 79.1642 334.42 78.8728 333.681 78.5855C334.404 78.8938 335.082 79.2322 335.709 79.6026C335.943 79.6385 336.18 79.6771 336.419 79.7182ZM329.347 77.1973C328.723 77.0258 328.155 76.8795 327.698 76.7685C325.085 76.178 322.475 75.6719 319.871 75.2483C291.85 70.6911 264.452 75.6833 240.772 87.7749C237.282 90.7216 233.547 93.0141 229.668 95.3946C224.863 98.3438 219.837 101.428 214.785 106.059C216.44 106.182 219.298 104.456 222.403 102.583C224.518 101.306 226.748 99.9607 228.788 99.0845L228.002 99.8893C229.187 99.5448 233.938 96.697 237.596 94.5049C239.272 93.5006 240.718 92.6339 241.486 92.2088C251.445 86.6973 272.213 77.4692 283.423 79.7563C294.106 77.1731 315.961 74.0299 329.347 77.1973ZM229.042 67.7954L229.043 67.7952Z" fill="#F3EBD9"/>
<path fill-rule="evenodd" clip-rule="evenodd" d="M283.425 79.7565C296.057 76.7021 324.31 72.8647 335.711 79.6028C298.675 74.8924 272.539 81.2486 242.165 104.682C210.32 129.754 189.565 166.306 184.35 206.499C180.839 238.759 184.185 255.49 194.71 278.219C198.686 286.165 204.526 294.192 210.124 302.392C199.97 295.693 185.473 275.622 179.815 264.634C165.517 236.548 162.754 203.985 172.113 173.886C179.92 147.838 193.579 123.556 214.787 106.059C216.442 106.182 219.301 104.457 222.405 102.583C224.52 101.306 226.75 99.9609 228.79 99.0847L228.004 99.8895C229.189 99.5451 233.941 96.6967 237.599 94.5047C239.274 93.5005 240.72 92.6341 241.488 92.209C251.448 86.6975 272.216 77.4694 283.425 79.7565ZM240.905 87.7108C237.14 89.3076 233.268 93.2153 229.686 95.4064C233.61 93.0066 237.386 90.6965 240.905 87.7108ZM229.686 95.4064C225.98 97.6733 222.143 100.02 218.268 103.093C222.142 100.02 225.978 97.6736 229.684 95.4069L229.686 95.4064Z" fill="#E1BB7D"/>
<path d="M283.425 79.7565C296.057 76.702 324.309 72.8647 335.711 79.6027C298.675 74.8923 272.539 81.2486 242.164 104.682C210.32 129.754 189.564 166.306 184.349 206.499C181.576 233.181 183.628 257.721 197.013 282.26C200.78 289.166 200.846 288.23 203.705 292.857C194.782 282.26 188.916 266.671 188.026 264.098C177.175 232.705 179.782 198.934 191.29 168.125C207.17 125.606 241.83 94.6092 283.425 79.7565Z" fill="#5E3C13"/>
<path fill-rule="evenodd" clip-rule="evenodd" d="M186.485 275.697C183.749 271.619 181.425 267.759 179.815 264.634C165.517 236.548 162.755 203.985 172.113 173.885C179.92 147.838 193.579 123.556 214.788 106.059C219.838 101.43 224.871 98.3509 229.684 95.4068C233.606 93.0073 237.382 90.6975 240.9 87.7119C217.409 97.6769 196.926 119.132 184.214 140.579C167.259 169.184 161.723 201.887 167.21 232.471C169.931 244.156 178.477 266.207 186.485 275.697Z" fill="#E2D5C0"/>
<path fill-rule="evenodd" clip-rule="evenodd" d="M116.052 176.775C116.32 176.572 116.588 176.369 116.856 176.165C116.588 176.369 115.784 176.978 116.052 176.775Z" fill="#E1BB7D"/>
<path fill-rule="evenodd" clip-rule="evenodd" d="M116.052 176.775C116.32 176.572 116.588 176.369 116.856 176.165C116.588 176.369 115.784 176.978 116.052 176.775Z" fill="#E1BB7D"/>
<path d="M4.86768 231.107C21.3304 223.847 32.7916 221.451 47.3424 210.891C86.0001 182.84 118.941 150.193 157.716 122.14C215.944 80.0149 294.101 55.5898 365.748 68.1496C363.191 72.135 341.57 69.497 336.61 69.2717L340.925 71.5516C340.587 76.9448 333.952 74.9426 335.213 85.2726C330.042 88.8933 325.634 83.9196 319.984 87.895C234.903 93.0963 183.548 120.065 116.943 170.688C98.6077 184.623 71.9934 204.991 51.9914 214.859C38.092 222 20.5842 229.71 4.86768 231.107Z" fill="#E1BB7D"/>
<path d="M4.86768 231.107C21.3304 223.847 32.7916 221.451 47.3424 210.891C86.0001 182.84 118.941 150.193 157.716 122.14C215.944 80.0149 294.101 55.5898 365.748 68.1496C363.191 72.135 341.57 69.497 336.61 69.2717L340.925 71.5516C340.587 76.9448 333.952 74.9426 335.213 85.2726C330.042 88.8933 325.634 83.9196 319.984 87.895C234.903 93.0963 183.548 120.065 116.943 170.688C98.6077 184.623 71.9934 204.991 51.9914 214.859C38.092 222 20.5842 229.71 4.86768 231.107Z" fill="#E1BB7D"/>
<path fill-rule="evenodd" clip-rule="evenodd" d="M157.717 120.878C215.945 78.7527 294.102 55.5896 365.749 68.1494C439.786 81.0606 485.333 109.384 540.752 158.468C543.459 160.866 547.37 164.149 551.653 167.745L551.658 167.748L551.659 167.749C555.607 171.064 558.846 174.095 562.074 177.116L562.075 177.117C566.205 180.982 570.319 184.832 575.881 189.241C600.785 208.98 616.058 219.972 646.076 230.402C647.923 231.043 649.524 231.519 651.056 231.973L651.057 231.974C652.779 232.485 654.413 232.97 656.209 233.636C656.623 233.789 657.041 233.944 657.464 234.101C606.612 229.648 576.551 207.077 537.406 176.602C511.884 156.732 485.392 138.024 456.614 123.139L456.739 122.878C404.678 96.0157 344.974 83.5062 286.601 91.9011C226.83 100.497 177.998 128.188 130.254 163.556C124.229 167.102 118.235 170.66 112.254 174.211C90.0074 187.419 67.9408 200.52 45.1381 212.428C45.8728 211.936 46.6076 211.425 47.3424 210.891C63.3623 199.267 78.4006 186.307 93.2793 173.485C96.265 170.912 99.2443 168.344 102.224 165.794C120.226 150.387 138.235 134.973 157.717 120.878ZM25.3438 222.34C24.6193 222.632 23.8965 222.922 23.1753 223.211C22.9669 223.294 22.7587 223.377 22.5507 223.461C19.7617 224.578 17.3874 225.784 14.8985 227.047L14.8961 227.049C14.0108 227.498 13.111 227.955 12.1728 228.418C16.602 226.449 20.9903 224.421 25.3438 222.34ZM456.241 123.92L456.293 122.973C456.4 123.029 456.507 123.084 456.614 123.139L456.241 123.92ZM456.241 123.92L456.225 124.2L456.151 124.162L456.13 124.151L456.241 123.92Z" fill="#E1BB7D"/>
<path d="M4.86816 231.107C21.3309 223.142 32.7908 220.82 47.3417 210.26C85.9993 182.209 118.941 148.93 157.716 120.878C215.944 78.7527 294.102 55.5896 365.748 68.1494C280.112 60.8466 229.155 86.136 204.274 98.0643C171.092 113.973 156.613 124.716 131.737 146.518C110.055 165.483 88.0227 184.044 65.6504 202.189C47.3506 216.786 25.2349 227.046 4.86816 231.107Z" fill="#E2D5C0"/>
<path fill-rule="evenodd" clip-rule="evenodd" d="M319.985 87.8948C404.85 88.5741 460.639 117.256 526.969 167.148C528.451 168.262 530.47 169.802 532.866 171.629L532.874 171.635L532.875 171.636L532.877 171.637C546.453 181.99 567.604 198.331 581.927 207.625C594.665 215.89 624.782 229.835 652.21 232.633C655.85 233.459 652.814 232.377 656.209 233.636C656.623 233.789 657.04 233.944 657.464 234.101C606.611 229.648 576.55 208.34 537.405 177.864C512.557 158.519 485.771 139.413 457.743 124.983C457.212 124.71 456.667 124.428 456.108 124.14C447.881 119.895 439.543 115.653 428.61 111.333C411.708 104.655 395.328 100.261 384.295 97.6883C370.814 94.67 361.994 93.4976 348.187 92.3286C323.826 90.4792 309.633 92.284 285.969 95.6872C267.017 98.4128 249.858 102.932 232.878 108.96C235.13 106.522 237.417 104.206 239.769 101.997C263.883 94.4333 289.445 89.7618 319.985 87.8948ZM205.45 114.966C201.726 118.134 198.169 121.564 194.807 125.181C172.057 136.811 150.406 151.072 128.825 167.142C124.864 170.091 120.876 173.114 116.855 176.165C92.9107 194.337 68.5452 213.199 40.2737 224.182C35.0679 226.204 30.5212 227.38 25.6383 228.643C23.7446 229.133 21.8003 229.636 19.7475 230.207C18.7934 230.386 17.8427 230.569 16.8943 230.751C13.4365 231.415 4.86865 231.107 4.86865 231.107C20.5851 229.71 38.093 222 51.9924 214.859C71.4982 205.236 97.2923 185.627 115.565 171.737L116.944 170.688C148.113 146.998 175.942 128.489 205.45 114.966Z" fill="#5E3C13"/>
<path fill-rule="evenodd" clip-rule="evenodd" d="M72.3212 271.485C124.267 319.688 187.64 360.172 256.432 379.882C363.102 406.904 439.421 380.952 525.025 318.792C528.127 315.826 535.14 310.883 541.556 305.783C545.609 302.561 549.425 299.528 551.866 297.462C557.375 292.787 596.338 256.048 599.439 251.129L602.473 247.124C597.561 249.169 587.927 256.356 580.936 261.792C578.038 264.046 575.401 266.096 573.394 267.53C556.707 279.646 539.573 291.698 522.036 302.548C453.303 345.304 380.864 374.757 298.154 366.204C284.549 364.665 271.077 361.644 257.774 358.417L257.064 358.245C250.719 356.706 238.194 353.669 235.046 352.574C205.448 342.447 177.152 331.624 150.06 315.911C127.907 303.062 83.2135 272.132 83.2135 272.132C70.1238 261.861 60.4139 255.835 46.9863 246.009C55.4024 256.092 63.4889 263.289 72.3212 271.485Z" fill="#E1BB7D"/>
<path fill-rule="evenodd" clip-rule="evenodd" d="M256.989 382.259C364.557 409.509 452.447 380.419 542.113 306.341C560.807 290.897 591.876 263.856 602.473 247.682L597.208 253.36C586.137 264.661 574.711 275.523 562.964 286.113C498.565 345.308 411.582 395.124 313.655 388.92C234.374 383.897 155.741 338.59 97.1136 292.044C89.3033 285.696 55.3521 257.163 46.9863 246.009C83.7957 290.068 166.896 354.764 256.989 382.259Z" fill="#5E3C13"/>
<path fill-rule="evenodd" clip-rule="evenodd" d="M296.481 363.973C339.102 368.38 380.11 364.369 418.174 351.973L407.721 359.872C361.065 372.932 312.804 375.855 263.767 362.708L296.481 363.973ZM451.108 339.706C448.53 342.571 443.594 345.882 440.77 348.514C494.794 327.794 541.122 294.688 594.42 252.802L602.473 247.124C597.561 249.169 587.927 256.357 580.936 261.792C578.037 264.046 575.401 266.096 573.394 267.53C556.707 279.646 539.573 291.14 522.036 301.99C498.897 316.384 475.338 329.27 451.108 339.706Z" fill="#E2D5C0"/>
<path fill-rule="evenodd" clip-rule="evenodd" d="M435.801 350.639L444.433 342.512C446.664 341.597 448.889 340.662 451.108 339.706L435.801 350.639ZM440.77 348.514C438.385 349.429 438.216 349.766 435.801 350.639L440.77 348.514Z" fill="#5E3C13"/>
<path d="M440.77 348.514C443.594 345.882 448.53 342.571 451.108 339.706L435.801 350.639L440.77 348.514Z" fill="#E2D5C0"/>
<path d="M306.883 370.295C292.592 369.059 278.213 366.581 263.767 362.708L296.481 363.973C212.4 357.834 134.676 309.503 77.1881 267.127C66.1898 259.465 55.3521 252.144 46.9863 246.009C55.7215 253.783 71.7721 265.352 79.9457 271.848C143.289 322.192 223.914 365.155 306.883 370.295Z" fill="#E2D5C0"/>
<path d="M213.186 234.854L328.527 234.297L306.505 224.682L213.186 234.854Z" fill="#F2DEB1"/>
<path d="M273.583 290.028L328.569 234.382L307.795 246.719L273.583 290.028Z" fill="#F2DBA8"/>
<path d="M341.066 221.865L383.684 179.926L341.059 212.926L328.644 234.297H328.654L341.066 221.865Z" fill="#E6CFA5"/>
<path d="M318.464 257.008L329.191 347.513L328.634 234.435L328.604 234.376L318.464 257.008Z" fill="#F2DBA8"/>
<path d="M328.634 220.529L329.191 119.407L317.882 217.388L328.516 234.2L328.613 234.297H328.634V220.529Z" fill="#E6D8BC"/>
<path d="M385.915 291.701L352.261 246.161L328.698 234.382L385.915 291.701Z" fill="#BF9659"/>
<path d="M444.639 234.297L352.993 222.452L328.74 234.297H444.639Z" fill="#DDB677"/>
<path d="M273.025 179.368L316.202 221.865L328.516 234.2L317.882 217.388L273.025 179.368Z" fill="#E8DBC2"/>
<path d="M316.202 221.865L273.025 179.368L306.505 224.682L328.527 234.297H328.565L328.516 234.2L316.202 221.865Z" fill="#BF9659"/>
<path d="M329.191 119.407L328.634 220.529V234.297H328.644L341.059 212.926L329.191 119.407Z" fill="#C19858"/>
<path d="M329.191 347.513L340.476 258.124L328.634 234.435L329.191 347.513Z" fill="#C19858"/>
<path d="M340.476 258.124L385.915 291.701L328.698 234.382L328.634 234.35L328.634 234.435L340.476 258.124Z" fill="#AB8145"/>
<path d="M213.186 234.854L307.795 246.719L328.569 234.382L328.595 234.357L328.577 234.322L328.527 234.297L213.186 234.854Z" fill="#AA8347"/>
<path d="M273.583 290.028L318.464 257.008L328.604 234.376L328.6 234.367L328.569 234.382L273.583 290.028Z" fill="#B48D51"/>
<path d="M352.261 246.161L444.639 234.297H328.74L328.655 234.339L328.698 234.382L352.261 246.161Z" fill="#AA8347"/>
<path d="M383.684 179.926L341.066 221.865L328.654 234.297H328.74L352.993 222.452L383.684 179.926Z" fill="#B48D51"/>
<path d="M329.191 119.407L328.634 220.529V234.297M317.882 217.388L329.191 119.407L341.059 212.926M352.993 222.452L444.639 234.297L352.261 246.161M444.639 234.297H328.74M340.476 258.124L329.191 347.513L318.464 257.008M329.191 347.513L328.634 234.435M307.795 246.719L213.186 234.854L306.505 224.682M213.186 234.854L328.527 234.297M383.684 179.926L341.066 221.865L328.654 234.297M341.059 212.926L383.684 179.926L352.993 222.452M340.476 258.124L385.915 291.701L352.261 246.161M385.915 291.701L328.698 234.382M307.795 246.719L273.583 290.028L318.464 257.008M273.583 290.028L328.569 234.382M273.025 179.368L316.202 221.865L328.516 234.2M317.882 217.388L273.025 179.368L306.505 224.682M318.464 257.008L328.604 234.376M328.634 234.318L328.654 234.297M328.634 234.318L328.644 234.297M328.634 234.318L328.604 234.376M328.634 234.318V234.297M328.634 234.318L328.613 234.297M328.634 234.318L328.634 234.35M328.634 234.318L328.595 234.357M328.634 234.318L328.655 234.339M352.261 246.161L328.698 234.382M306.505 224.682L328.527 234.297M307.795 246.719L328.569 234.382M352.993 222.452L328.74 234.297M341.059 212.926L328.644 234.297M317.882 217.388L328.516 234.2M340.476 258.124L328.634 234.435M328.527 234.297H328.565M328.527 234.297L328.577 234.322M328.569 234.382L328.595 234.357M328.569 234.382L328.6 234.367M328.644 234.297H328.654M328.644 234.297H328.634M328.654 234.297H328.74M328.634 234.435L328.604 234.376M328.634 234.435L328.634 234.35M328.604 234.376L328.6 234.367M328.516 234.2L328.613 234.297M328.516 234.2L328.565 234.297M328.613 234.297H328.634M328.613 234.297H328.565M328.698 234.382L328.634 234.35M328.698 234.382L328.655 234.339M328.634 234.35L328.577 234.322M328.634 234.35L328.6 234.367M328.634 234.35L328.655 234.339M328.74 234.297L328.655 234.339M328.565 234.297L328.577 234.322M328.595 234.357L328.577 234.322M328.595 234.357L328.6 234.367" stroke="#5E3C13" stroke-width="2.78859" stroke-miterlimit="9.43363"/>
<path d="M204.82 234.297H328.527L305.948 223.009L204.82 234.297Z" fill="#E6CFA5"/>
<path d="M268.006 295.047L328.569 234.382L306.122 245.604L268.006 295.047Z" fill="#E6CFA5"/>
<path d="M341.066 221.865L389.261 173.791L339.943 211.811L328.644 234.297H328.654L341.066 221.865Z" fill="#E6CFA5"/>
<path d="M317.349 257.009L328.634 358.11V234.435L328.604 234.376L317.349 257.009Z" fill="#E6CFA5"/>
<path d="M328.634 220.529V110.484L317.324 211.811L328.516 234.2L328.613 234.297H328.634V220.529Z" fill="#E6D8BC"/>
<path d="M389.261 295.047L351.146 245.604L328.698 234.382L389.261 295.047Z" fill="#BF9659"/>
<path d="M452.447 234.297L351.319 223.009L328.74 234.297H452.447Z" fill="#DDB677"/>
<path d="M268.006 173.791L316.202 221.865L328.516 234.2L317.324 211.811L268.006 173.791Z" fill="#E6CFA5"/>
<path d="M316.202 221.865L268.006 173.791L305.948 223.009L328.527 234.297H328.565L328.516 234.2L316.202 221.865Z" fill="#BF9659"/>
<path d="M328.634 110.484V220.529V234.297H328.644L339.943 211.811L328.634 110.484Z" fill="#C19858"/>
<path d="M328.634 358.11L339.918 257.009L328.634 234.435V358.11Z" fill="#C19858"/>
<path d="M339.918 257.009L389.261 295.047L328.698 234.382L328.634 234.35V234.435L339.918 257.009Z" fill="#AB8145"/>
<path d="M204.82 234.297L306.122 245.604L328.569 234.382L328.595 234.357L328.577 234.322L328.527 234.297H204.82Z" fill="#AA8347"/>
<path d="M268.006 295.047L317.349 257.009L328.604 234.376L328.6 234.367L328.569 234.382L268.006 295.047Z" fill="#B48D51"/>
<path d="M351.146 245.604L452.447 234.297H328.74L328.655 234.339L328.698 234.382L351.146 245.604Z" fill="#AA8347"/>
<path d="M389.261 173.791L341.066 221.865L328.654 234.297H328.74L351.319 223.009L389.261 173.791Z" fill="#B48D51"/>
<path d="M1846.09 284.309C1845.88 282.248 1845.88 280.186 1846.09 278.125C1852.89 277.507 1857.94 276.785 1861.24 275.961C1864.74 274.93 1867.53 272.765 1869.59 269.467C1871.65 265.963 1874.02 260.397 1876.7 252.77L1945.34 67.8612C1946.99 67.2428 1948.95 66.8305 1951.22 66.6244C1953.69 66.2121 1955.65 66.0059 1957.09 66.0059L2026.36 254.625C2029.04 261.84 2031.2 266.993 2032.85 270.085C2034.71 273.178 2037.28 275.136 2040.58 275.961C2043.88 276.785 2049.03 277.507 2056.04 278.125C2056.25 280.186 2056.25 282.248 2056.04 284.309C2050.68 284.309 2044.6 284.206 2037.8 284C2031.2 283.794 2025.12 283.691 2019.55 283.691C2013.78 283.691 2008.32 283.794 2003.17 284C1998.22 284.206 1992.86 284.309 1987.09 284.309C1986.88 282.248 1986.88 280.186 1987.09 278.125C1994.3 277.507 1999.04 276.888 2001.31 276.27C2003.78 275.445 2005.02 273.59 2005.02 270.704C2005.02 269.673 2004.82 268.436 2004.4 266.993C2003.99 265.344 2003.37 263.386 2002.55 261.118L1981.21 201.441H1907.62L1887.52 257.717C1885.46 263.283 1884.43 267.303 1884.43 269.776C1884.43 273.075 1885.98 275.136 1889.07 275.961C1892.16 276.785 1897.21 277.507 1904.22 278.125C1904.42 280.186 1904.42 282.248 1904.22 284.309C1899.06 284.309 1894.01 284.206 1889.07 284C1884.33 283.794 1879.38 283.691 1874.22 283.691C1870.1 283.691 1865.46 283.794 1860.31 284C1855.36 284.206 1850.62 284.309 1846.09 284.309ZM1911.02 191.855H1977.5L1944.11 98.7823L1911.02 191.855ZM1983.38 35.0848C1980.49 35.9093 1976.47 37.1462 1971.32 38.7953C1966.37 40.2383 1960.91 41.9905 1954.93 44.0519C1949.16 45.9072 1943.59 47.7625 1938.23 49.6177C1932.87 51.473 1928.44 53.019 1924.94 54.2559C1923.49 53.019 1922.46 51.1638 1921.84 48.6901C1926.17 45.8041 1931.53 42.2997 1937.92 38.1769C1944.31 33.8479 1950.6 29.622 1956.78 25.4992C1963.17 21.1703 1968.12 17.6659 1971.63 14.986C1973.28 15.3983 1975.34 17.7689 1977.81 22.0979C1980.49 26.2207 1982.35 30.5497 1983.38 35.0848Z" fill="#E1BB7D"/>
<path d="M1745 97.8547L1693.36 189.381V257.408C1693.36 263.592 1693.67 268.127 1694.29 271.013C1695.11 273.693 1697.17 275.445 1700.47 276.27C1703.77 276.888 1709.23 277.507 1716.86 278.125C1717.07 280.186 1717.07 282.248 1716.86 284.309C1713.77 284.309 1709.95 284.206 1705.42 284C1700.88 284 1696.35 284 1691.81 284C1687.49 283.794 1683.88 283.691 1680.99 283.691C1678.11 283.691 1674.4 283.794 1669.86 284C1665.53 284 1661.1 284 1656.56 284C1652.03 284.206 1648.22 284.309 1645.12 284.309C1644.92 282.248 1644.92 280.186 1645.12 278.125C1652.75 277.507 1658.11 276.888 1661.2 276.27C1664.5 275.445 1666.56 273.899 1667.39 271.632C1668.21 269.364 1668.62 265.55 1668.62 260.191V191.546L1615.75 96.3086C1612.04 89.506 1609.05 84.6617 1606.78 81.7757C1604.72 78.6836 1602.14 76.6222 1599.05 75.5915C1596.16 74.5608 1591.63 73.8393 1585.45 73.427C1585.24 71.3656 1585.24 69.3042 1585.45 67.2428C1590.81 67.2428 1596.58 67.3458 1602.76 67.552C1609.15 67.7581 1615.13 67.8612 1620.7 67.8612C1625.44 67.8612 1630.69 67.7581 1636.47 67.552C1642.44 67.3458 1648.11 67.2428 1653.47 67.2428C1653.68 69.3042 1653.68 71.3656 1653.47 73.427C1647.08 73.6331 1642.55 74.2516 1639.87 75.2823C1637.19 76.1068 1635.85 77.6529 1635.85 79.9204C1635.85 81.7757 1637.29 85.2801 1640.18 90.4336L1688.41 177.94L1736.65 90.4336C1738.09 87.9599 1739.12 86.0016 1739.74 84.5586C1740.57 82.9095 1740.98 81.5696 1740.98 80.5389C1740.98 78.2713 1739.33 76.7253 1736.03 75.9007C1732.94 74.87 1727.68 74.0454 1720.26 73.427C1720.06 71.3656 1720.06 69.3042 1720.26 67.2428C1723.97 67.2428 1728.92 67.3458 1735.1 67.552C1741.29 67.7581 1746.24 67.8612 1749.95 67.8612C1754.69 67.8612 1759.33 67.7581 1763.86 67.552C1768.6 67.3458 1773.24 67.2428 1777.78 67.2428C1777.98 69.3042 1777.98 71.3656 1777.78 73.427C1771.59 73.8393 1766.85 74.5608 1763.55 75.5915C1760.25 76.6222 1757.37 78.7867 1754.89 82.0849C1752.42 85.3832 1749.12 90.6398 1745 97.8547Z" fill="#E1BB7D"/>
<path d="M1384.75 183.197L1377.02 182.579V257.408C1377.02 263.592 1377.43 268.127 1378.26 271.013C1379.08 273.693 1381.04 275.445 1384.13 276.27C1387.43 276.888 1392.79 277.507 1400.21 278.125C1400.42 280.186 1400.42 282.248 1400.21 284.309C1397.33 284.309 1393.51 284.206 1388.77 284C1384.24 284 1379.7 284 1375.17 284C1370.84 283.794 1367.23 283.691 1364.34 283.691C1361.67 283.691 1358.06 283.794 1353.52 284C1349.19 284 1344.86 284 1340.54 284C1336.21 284.206 1332.6 284.309 1329.71 284.309C1329.51 282.248 1329.51 280.186 1329.71 278.125C1336.93 277.507 1342.08 276.888 1345.17 276.27C1348.47 275.651 1350.43 274.208 1351.05 271.941C1351.87 269.467 1352.29 265.55 1352.29 260.191V93.835C1352.29 87.6507 1351.87 83.2187 1351.05 80.5389C1350.22 77.859 1348.16 76.1068 1344.86 75.2823C1341.77 74.4577 1336.72 73.8393 1329.71 73.427C1329.51 71.3656 1329.51 69.3042 1329.71 67.2428C1332.6 67.2428 1336.21 67.3458 1340.54 67.552C1345.07 67.552 1349.5 67.655 1353.83 67.8612C1358.37 67.8612 1361.97 67.8612 1364.65 67.8612C1367.33 67.8612 1371.35 67.8612 1376.71 67.8612C1382.07 67.655 1387.43 67.552 1392.79 67.552C1398.15 67.3458 1402.07 67.2428 1404.54 67.2428C1416.29 67.2428 1427.22 68.995 1437.32 72.4994C1447.42 76.0038 1455.56 81.6726 1461.75 89.506C1468.14 97.1332 1471.33 107.44 1471.33 120.427C1471.33 135.682 1466.8 148.05 1457.73 157.533C1448.66 167.015 1436.49 174.127 1421.24 178.868V179.796C1424.13 181.239 1426.81 183.094 1429.28 185.362C1431.96 187.423 1434.95 190.515 1438.25 194.638C1440.72 197.73 1444.22 202.677 1448.76 209.48C1453.5 216.283 1458.45 223.704 1463.6 231.743C1468.96 239.577 1473.81 246.895 1478.13 253.697C1482.88 261.118 1486.9 266.478 1490.19 269.776C1493.49 272.868 1497.1 274.93 1501.02 275.961C1504.93 276.785 1510.19 277.507 1516.79 278.125C1516.99 280.186 1516.99 282.248 1516.79 284.309C1513.9 284.309 1510.19 284.206 1505.65 284C1501.12 284 1496.69 284 1492.36 284C1488.24 283.794 1485.04 283.691 1482.77 283.691C1480.3 283.691 1477.93 283.794 1475.66 284C1473.39 284 1471.13 284 1468.86 284C1466.59 280.083 1463.29 274.724 1458.96 267.921C1454.63 260.912 1449.79 253.285 1444.43 245.039C1439.07 236.794 1433.71 228.754 1428.35 220.921C1423.2 212.881 1418.56 206.079 1414.44 200.513C1410.93 195.566 1407.84 191.958 1405.16 189.691C1402.48 187.423 1399.59 185.877 1396.5 185.052C1393.62 184.228 1389.7 183.609 1384.75 183.197ZM1377.02 173.302C1379.7 173.715 1382.07 174.024 1384.13 174.23C1386.2 174.23 1388.15 174.23 1390.01 174.23C1406.5 174.23 1419.69 170.21 1429.59 162.171C1439.69 153.925 1444.74 141.144 1444.74 123.828C1444.74 108.368 1440.51 96.6179 1432.06 88.5784C1423.61 80.3327 1411.14 76.2099 1394.65 76.2099C1389.49 76.2099 1383.62 76.5191 1377.02 77.1375V173.302Z" fill="#E1BB7D"/>
<path d="M1000.07 284.309C999.861 282.248 999.861 280.186 1000.07 278.125C1006.87 277.507 1011.92 276.785 1015.22 275.961C1018.72 274.93 1021.51 272.765 1023.57 269.467C1025.63 265.963 1028 260.397 1030.68 252.77L1099.32 67.8612C1100.97 67.2428 1102.93 66.8305 1105.2 66.6244C1107.67 66.2121 1109.63 66.0059 1111.07 66.0059L1180.34 254.625C1183.02 261.84 1185.18 266.993 1186.83 270.085C1188.69 273.178 1191.26 275.136 1194.56 275.961C1197.86 276.785 1203.01 277.507 1210.02 278.125C1210.23 280.186 1210.23 282.248 1210.02 284.309C1204.66 284.309 1198.58 284.206 1191.78 284C1185.18 283.794 1179.1 283.691 1173.53 283.691C1167.76 283.691 1162.3 283.794 1157.15 284C1152.2 284.206 1146.84 284.309 1141.07 284.309C1140.86 282.248 1140.86 280.186 1141.07 278.125C1148.28 277.507 1153.02 276.888 1155.29 276.27C1157.77 275.445 1159 273.59 1159 270.704C1159 269.673 1158.8 268.436 1158.38 266.993C1157.97 265.344 1157.35 263.386 1156.53 261.118L1135.19 201.441H1061.6L1041.5 257.717C1039.44 263.283 1038.41 267.303 1038.41 269.776C1038.41 273.075 1039.96 275.136 1043.05 275.961C1046.14 276.785 1051.19 277.507 1058.2 278.125C1058.41 280.186 1058.41 282.248 1058.2 284.309C1053.05 284.309 1048 284.206 1043.05 284C1038.31 283.794 1033.36 283.691 1028.21 283.691C1024.08 283.691 1019.44 283.794 1014.29 284C1009.34 284.206 1004.6 284.309 1000.07 284.309ZM1065 191.855H1131.48L1098.09 98.7823L1065 191.855Z" fill="#E1BB7D"/>
<path d="M886.942 72.1901L755.218 274.414H840.869C849.321 274.414 855.711 273.796 860.04 272.559C864.369 271.116 867.977 268.539 870.863 264.829C872.924 262.149 875.089 258.542 877.356 254.007C879.624 249.471 881.685 244.112 883.54 237.927C885.396 237.721 887.251 237.721 889.106 237.927C887.457 247.204 885.911 255.862 884.468 263.901C883.231 271.735 882.407 278.434 881.994 284C879.108 284 870.451 284 856.021 284C841.591 283.794 820.564 283.691 792.941 283.691C778.305 283.691 766.659 283.794 758.001 284C749.343 284 742.437 284 737.283 284C732.336 284.206 727.801 284.309 723.678 284.309C723.06 282.66 722.75 281.114 722.75 279.671L854.475 77.1375H771.297C765.525 77.1375 760.474 77.5498 756.145 78.3744C752.023 79.1989 748.621 81.0542 745.941 83.9402C743.88 86.2077 741.922 89.6091 740.066 94.1442C738.211 98.6793 736.562 103.833 735.119 109.605C733.058 109.811 730.996 109.811 728.935 109.605C730.172 102.184 731.202 94.8657 732.027 87.6507C733.058 80.4358 733.882 73.6331 734.501 67.2428C746.663 67.655 759.444 67.9643 772.843 68.1704C786.242 68.1704 800.259 68.1704 814.896 68.1704C830.15 68.1704 842.312 68.1704 851.382 68.1704C860.453 67.9643 867.668 67.8612 873.027 67.8612C878.387 67.655 882.716 67.552 886.014 67.552C886.22 68.1704 886.426 68.8919 886.633 69.7165C886.839 70.3349 886.942 71.1594 886.942 72.1901Z" fill="#E1BB7D"/>
<path d="M1536.03 437.402L1570.88 361.646H1576.4L1611.24 437.402H1605.29L1572.39 365.109H1574.77L1541.98 437.402H1536.03ZM1548.8 416.082L1550.64 411.429H1595.98L1597.82 416.082H1548.8Z" fill="#E1BB7D"/>
<path d="M1473.85 437.944C1468.23 437.944 1462.99 437.006 1458.16 435.13C1453.4 433.182 1449.25 430.476 1445.71 427.013C1442.18 423.55 1439.44 419.509 1437.49 414.892C1435.54 410.202 1434.57 405.079 1434.57 399.524C1434.57 393.968 1435.54 388.882 1437.49 384.264C1439.44 379.575 1442.18 375.498 1445.71 372.035C1449.32 368.572 1453.51 365.902 1458.27 364.027C1463.03 362.078 1468.23 361.104 1473.85 361.104C1479.19 361.104 1484.17 361.97 1488.79 363.702C1493.48 365.433 1497.48 368.067 1500.8 371.602L1497.34 375.174C1494.09 371.999 1490.48 369.726 1486.51 368.355C1482.62 366.912 1478.47 366.191 1474.07 366.191C1469.24 366.191 1464.73 367.021 1460.54 368.68C1456.43 370.34 1452.82 372.684 1449.72 375.715C1446.69 378.745 1444.31 382.28 1442.58 386.321C1440.92 390.361 1440.09 394.762 1440.09 399.524C1440.09 404.286 1440.92 408.687 1442.58 412.727C1444.31 416.768 1446.69 420.303 1449.72 423.333C1452.82 426.364 1456.43 428.708 1460.54 430.368C1464.73 432.027 1469.24 432.857 1474.07 432.857C1478.47 432.857 1482.62 432.172 1486.51 430.801C1490.48 429.358 1494.09 427.013 1497.34 423.766L1500.8 427.338C1497.48 430.873 1493.48 433.542 1488.79 435.346C1484.17 437.078 1479.19 437.944 1473.85 437.944Z" fill="#E1BB7D"/>
<path d="M1377.43 437.402V361.646H1382.95V437.402H1377.43Z" fill="#E1BB7D"/>
<path d="M1298.49 437.402V366.624H1271.21V361.646H1331.28V366.624H1304.01V437.402H1298.49Z" fill="#E1BB7D"/>
<path d="M1194.04 437.944C1188.41 437.944 1183.18 437.006 1178.34 435.13C1173.58 433.182 1169.4 430.476 1165.79 427.013C1162.26 423.478 1159.51 419.401 1157.57 414.784C1155.62 410.094 1154.64 405.007 1154.64 399.524C1154.64 394.041 1155.62 388.99 1157.57 384.373C1159.51 379.683 1162.26 375.607 1165.79 372.143C1169.4 368.608 1173.58 365.902 1178.34 364.027C1183.18 362.079 1188.41 361.104 1194.04 361.104C1199.66 361.104 1204.86 362.079 1209.62 364.027C1214.46 365.902 1218.64 368.572 1222.18 372.035C1225.71 375.498 1228.45 379.575 1230.4 384.264C1232.42 388.882 1233.43 393.969 1233.43 399.524C1233.43 405.08 1232.42 410.202 1230.4 414.892C1228.45 419.509 1225.71 423.55 1222.18 427.013C1218.64 430.476 1214.46 433.182 1209.62 435.13C1204.86 437.006 1199.66 437.944 1194.04 437.944ZM1194.04 432.857C1198.87 432.857 1203.34 432.027 1207.46 430.368C1211.57 428.708 1215.14 426.364 1218.17 423.333C1221.2 420.303 1223.55 416.768 1225.21 412.727C1226.94 408.687 1227.8 404.286 1227.8 399.524C1227.8 394.69 1226.94 390.289 1225.21 386.321C1223.55 382.28 1221.2 378.745 1218.17 375.715C1215.14 372.684 1211.57 370.34 1207.46 368.68C1203.34 367.021 1198.87 366.191 1194.04 366.191C1189.2 366.191 1184.73 367.021 1180.62 368.68C1176.5 370.34 1172.9 372.684 1169.79 375.715C1166.76 378.745 1164.38 382.28 1162.65 386.321C1160.99 390.289 1160.16 394.69 1160.16 399.524C1160.16 404.286 1160.99 408.687 1162.65 412.727C1164.38 416.768 1166.76 420.303 1169.79 423.333C1172.9 426.364 1176.5 428.708 1180.62 430.368C1184.73 432.027 1189.2 432.857 1194.04 432.857ZM1187.87 355.477L1202.91 342.706H1210.7L1193.71 355.477H1187.87Z" fill="#E1BB7D"/>
<g filter="url(#filter0_ii_52_447)">
<path d="M729.708 397.337H1088.39M1672.8 397.337H2031.49" stroke="#E1BB7D" stroke-width="2.61533"/>
</g>
<defs>
<filter id="filter0_ii_52_447" x="729.708" y="395.157" width="1301.78" height="4.35891" filterUnits="userSpaceOnUse" color-interpolation-filters="sRGB">
<feFlood flood-opacity="0" result="BackgroundImageFix"/>
<feBlend mode="normal" in="SourceGraphic" in2="BackgroundImageFix" result="shape"/>
<feColorMatrix in="SourceAlpha" type="matrix" values="0 0 0 0 0 0 0 0 0 0 0 0 0 0 0 0 0 0 127 0" result="hardAlpha"/>
<feOffset dy="-0.871777"/>
<feGaussianBlur stdDeviation="0.435888"/>
<feComposite in2="hardAlpha" operator="arithmetic" k2="-1" k3="1"/>
<feColorMatrix type="matrix" values="0 0 0 0 0 0 0 0 0 0 0 0 0 0 0 0 0 0 0.35 0"/>
<feBlend mode="normal" in2="shape" result="effect1_innerShadow_52_447"/>
<feColorMatrix in="SourceAlpha" type="matrix" values="0 0 0 0 0 0 0 0 0 0 0 0 0 0 0 0 0 0 127 0" result="hardAlpha"/>
<feOffset dy="0.871777"/>
<feGaussianBlur stdDeviation="0.435888"/>
<feComposite in2="hardAlpha" operator="arithmetic" k2="-1" k3="1"/>
<feColorMatrix type="matrix" values="0 0 0 0 1 0 0 0 0 1 0 0 0 0 1 0 0 0 0.85 0"/>
<feBlend mode="normal" in2="effect1_innerShadow_52_447" result="effect2_innerShadow_52_447"/>
</filter>
</defs>
</svg>
